<svg id="Layer_1" data-name="Layer 1" xmlns="http://www.w3.org/2000/svg" viewBox="0 0 3000 2000"><defs><style>.cls-1{fill:#fff;}.cls-2{fill:#ebf3fa;}.cls-3{fill:#f8fbff;}.cls-4{fill:#e1efff;}.cls-5{fill:#d9e9fc;}.cls-6{fill:#8cb7ea;}.cls-7{fill:#b4d5ef;}.cls-8{fill:#afd295;}.cls-9{fill:#82b378;}.cls-10{fill:#233862;}.cls-11{fill:#e8945b;}.cls-12{fill:#f99f46;}.cls-13{fill:#d86713;opacity:0.4;}.cls-14{fill:#c65447;}.cls-15{fill:#ffb27d;}.cls-16{fill:#b84c42;}.cls-17{fill:#aa3e39;}.cls-18{fill:#2c3a64;}.cls-19{fill:#c0783d;}.cls-20{fill:#2b478b;}.cls-21{fill:#466aa5;}</style></defs><title>9831</title><rect class="cls-1" width="3000" height="2000"/><path class="cls-2" d="M194.22,1646.2c.09.48.18.94.28,1.42l41.75-.14,647.23-2,427.09-1.3,13,0,30.06-.09,390.71-1.2,900.25-2.77h0l33.05-.09h0l22.92-.08h0l13.23,0,5.84,0s.87-1.44,2.46-4.23l.48-.83,2-3.53c4.21-7.67,10.85-20.28,18.65-37q3-6.51,6.29-13.84c1.71-3.9,3.47-8,5.24-12.16.6-1.4,1.19-2.82,1.79-4.27s1.23-3,1.86-4.49c3.27-8,6.6-16.56,9.93-25.57h0q4.92-13.29,9.75-27.94c.06-.21.14-.42.21-.64q2.67-8.21,5.28-16.76,3.83-12.57,7.37-25.91,3.38-12.74,6.45-26.11c3.61-15.77,6.81-32.18,9.45-49.15a636.28,636.28,0,0,0,7.8-107.94,547.29,547.29,0,0,0-12-107c-19.6-90.9-65.41-184.49-154.27-270.13-326.77-314.9-607.83-140.43-750.42-149.18-25.55-1.57-48-11.72-70.07-27.8-40.42-29.47-79.54-78.86-134.12-131.88-81.81-79.47-198.33-167.1-406-208-257-50.67-610-36.47-762.69,115.82C432.67,593.31,413.58,736,533.38,945.35q10.92,19.1,23.41,38.94,10.5,16.68,18.33,31.86c13.18,25.44,21,47.87,24.28,67.87,7.91,48-10.26,82-42.8,110a265.74,265.74,0,0,1-31.37,22.86c-38,24-86.06,44.66-134,68.84-26.44,13.37-52.84,27.8-77.49,44.49-22.89,15.52-44.27,33-62.76,53.29a252.07,252.07,0,0,0-32.17,43.77c-.52.9-1,1.8-1.54,2.7a244,244,0,0,0-26.41,72.26c-.27,1.38-.54,2.76-.79,4.16C182.91,1545.75,183.41,1591.77,194.22,1646.2Z"/><path class="cls-3" d="M533.38,945.35l1443.38,245.44,103.55-124.17L525.06,501.18C432.67,593.31,413.58,736,533.38,945.35Z"/><path class="cls-4" d="M194.5,1647.62l689-2.12,427.09-1.31,13,0,30.07-.09c274.61-152.38,358.3-312.16,358.3-312.16-9.83-2.46-712.6-147.29-1186.7-115-38,24-86.06,44.66-134,68.85-26.44,13.35-52.84,27.79-77.49,44.49C225.93,1389.74,160.36,1477.88,194.5,1647.62Z"/><path class="cls-5" d="M194.5,1647.62l2525.16-7.76s135.43-224.07,83-467.46c-31.1,21.13-66.36,36.43-88.75,19-28.27-22-109.23-86.2-170.53-134.9l0,0c-42.16-33.5-75-59.66-75-59.66s-34.44-33.13-57-23.85c-10.43,4.29-20.58,14.55-29.51,23.94l-.09.08c-10.33,10.86-19,20.51-24.73,18.39-5.14-1.93-42.95-40.58-86.9-83.52-46.73-45.67-100.41-96.21-129.1-112.6,0,0-26.68-27.34-55.64,4-14.84,16-37.66,57-63.15,106.31-58.82,113.67-131.9,271.54-154.08,269.43-31.8-3-81.27-73.68-111.31-80.75S1590,1358.4,1531.69,1369s-169.63-79.51-259.75-53S1036,1490.93,900.84,1464.43c-108.18-21.22-352.8-140.82-509.57-178.67C270.57,1346.71,150.79,1430.25,194.5,1647.62Z"/><path class="cls-6" d="M190.9,1502.27l4.72-1.61c4.92-1.47,12.95-3.22,20.45-2.1,7.9,1.17,21.21,10.9,29.31,17.36-3.77-6.38-7.24-14.37-8.1-23.11-2.11-21.16,6.18-45.06,19.43-29.28,9.61,11.44,5.29,41.62,2.19,57.38,5.12,2,10.28,4.2,15.44,6.57,6.34-22.34,15.43-48.94,27.87-74.85,5.92-12.36,124.33,9.85,174.52,39.28,80,46.88,328.73-.34,406.48,12s226.91,70.15,371.8,31.28,622-63.61,761.53-88.35c122.84-21.77,565.41-149.69,798.09-167.42a636.28,636.28,0,0,1-7.8,107.94c-22.78,145.94-87.17,252.47-87.17,252.47L883.48,1645.5l-328.05-3.1L192.84,1639C183,1585.79,183.23,1540.78,190.9,1502.27Z"/><path class="cls-7" d="M193.27,1641.31l362.16,1.09,328.05,3.1,427.09-1.31,13,0,30.07-.1,390.71-1.2,975.32-3s64.39-106.53,87.17-252.47c-185.35,16-552.49,50.85-991.52,106.19-630.85,79.52-959.62,132-1302.4,25.84-63.23-19.58-118-37.23-166-52.57q-23.4-7.49-44.68-14.22Q281.14,1446,262,1440.1c-14.52-4.44-29.71-9.62-42.78-13.36-.92,1.53-1.2,2.1-1.86,3.27a243.83,243.83,0,0,0-26.41,72.26C183.23,1540.78,183.46,1588.12,193.27,1641.31Z"/><path class="cls-8" d="M193.27,1641.31l690.21,4.19,427.09-1.31,13,0,30.07-.09,390.71-1.2,975.84-3.88s1.27-2.09,4.37-7.71c4.22-7.66,10.85-20.27,18.66-37-104-36.34-304.13-156.55-482-99.55-265.06,84.93-1315.3,144.68-1503.49,110.22S398.5,1527.8,330.31,1591.1C311.84,1608.25,207.81,1561.6,193.27,1641.31Z"/><path class="cls-9" d="M2722.59,1634.8c.58-1,1.23-2.2,2-3.53,4.22-7.66,10.85-20.27,18.66-37q3-6.51,6.28-13.84c1.72-3.89,3.48-8,5.25-12.16.59-1.41,1.2-2.83,1.79-4.27s1.23-3,1.85-4.49c-44.89-105.19-145.89-314.82-240.27-288.68C2425.07,1296.57,2618.94,1522.5,2722.59,1634.8Z"/><path class="cls-9" d="M2783.56,1488.55q3.81-12.55,7.37-25.9c2.25-8.49,4.42-17.19,6.45-26.11-18.6-94.29-48.91-209.37-85.48-205.14C2668.54,1236.39,2738.33,1394.92,2783.56,1488.55Z"/><path class="cls-9" d="M2430.87,1546.23c31.4,16.75,122.1,58.66,199.28,93.86h0l40.75-.12h0l28.25-.09c-65.82-61.28-181-150.76-282-149.76a20,20,0,0,0-19.6,16.53C2396,1516.7,2401.65,1530.64,2430.87,1546.23Z"/><path class="cls-3" d="M2022.2,929.55c14,4.51,33.44,6.92,35.86-11.86,3.54-27.39,82.16,25.62,122.8,37.1s17.67-35.34,18.55-48.59c.54-8.1,40.05,10.21,70.68,25.67-46.73-45.67-100.41-96.21-129.1-112.6,0,0-26.68-27.34-55.64,4C2070.51,839.28,2047.69,880.26,2022.2,929.55Z"/><path class="cls-3" d="M2381.81,996.92c.89-.8,8.47-7,22.27.08,14.72,7.55,34.16,11.68,43,9s96.27,50.48,96.27,50.48l0,0c-42.16-33.5-75-59.66-75-59.66s-34.44-33.13-57-23.85C2400.89,977.27,2390.74,987.53,2381.81,996.92Z"/><path class="cls-3" d="M1075.58,477.09l752.28,248.2c-40.42-29.47-79.54-78.86-134.12-131.88Z"/><path class="cls-3" d="M1098.8,559.89A33.08,33.08,0,1,1,1065.72,593,33.08,33.08,0,0,1,1098.8,559.89Z"/><path class="cls-10" d="M1825.62,630.39s-46.86-24.68-114-29.61A78.79,78.79,0,0,0,1631,654.65q-1,3-1.86,6.16C1613.38,717.54,1622,889.29,1675,934.1S1825.62,960,1825.62,960Z"/><polygon class="cls-9" points="1743.29 554.04 1857.42 573.33 1848.72 612.56 1744.1 637.33 1743.29 554.04"/><path class="cls-11" d="M2155.33,801.15c-5.14-3.67-9.8,9.62-16.22,9.08-1.49-.13,6.43-7.9,8.32-10.62s1.48-4.21.11-5-19.57,9.14-23.29,13.17c-2.28,2.48-7.21,11.59-10.68,18.26,0,0,0-.07-.05-.07s-103.55,7.66-124.44,5.87c-15.16-1.19-22.62-108.34-23.79-108.12-19.75,3.25-58.12,11.33-81.81,27.41a7.51,7.51,0,0,1-2.86,1.44c9.05,33.14,22.54,72.07,42.14,108.3a68.06,68.06,0,0,0,65.07,35.57c36.14-2.8,89.23-12.12,134.45-40.87,0,0,23.41-11.9,34.3-21.5C2171.46,821,2160.47,804.83,2155.33,801.15Z"/><path class="cls-12" d="M1973.22,1014s-7,87.7-13.69,173c-9.09,115.93-43.69,404.79-43.69,404.79s7.33,11.52-28.27,4c0,0-43.63-98.39-52.7-211.56l-.42-5.59c-8.43-115.22-21.54-357.83-21.54-357.83Z"/><path class="cls-13" d="M1973.85,1006.14s-7.63,95.53-14.32,180.87l-124.66,197.24-.42-5.59c-8.43-115.22-21.54-357.83-21.54-357.83Z"/><path class="cls-12" d="M1966.51,1011l-290.7,553.29s-27.06,12.14-30.57,1.6c0,0,25.79-253.5,71-310.36,25.52-32.14,55.5-128.56,56.9-162.28s9.41-105,9.41-105Z"/><path class="cls-10" d="M1725.22,1642.19s-42.19.61-54.4-11.36c-1.44-1.41-6.09-15.55-6.13-15.7-.38-1.15-2.52-6.33-11.23-9.24-5.73-1.92-10.49-1.86-16-4a149.24,149.24,0,0,1-15.68-7.63c-13.07-7.63-10.09-11.66-10.09-11.66s2.88-2.61,6.67-6.42c1-1,2.12-2.17,3.23-3.36,5.66-6,12-13.6,13.57-19a18.35,18.35,0,0,1,6.41-9.54,17.54,17.54,0,0,1,6-3.14s4.61,18.5,13.73,16.2c17.64-4.47,20.93-4,21.54-3.67l.14.1s14.41,27.94,18.43,37.92c7.14,17.76,16.3,24.47,22,30.3a16,16,0,0,1,3.26,4.78C1729.71,1633.49,1727.51,1640.93,1725.22,1642.19Z"/><path class="cls-14" d="M1725.22,1642.19s-42.19.61-54.4-11.36c-1.44-1.41-6.09-15.55-6.13-15.7-.38-1.15-2.52-6.33-11.23-9.24-5.73-1.92-10.49-1.86-16-4a149.24,149.24,0,0,1-15.68-7.63c-13.07-7.63-10.09-11.66-10.09-11.66s2.88-2.61,6.67-6.42c1-1,2.12-2.17,3.23-3.36,1.37,5.36,5.18,14.93,15.27,18.85,14.41,5.59,29.87,15.19,34.41,22.92s7.46,14.67,16.27,17.6,31.73,3.74,33.33,2.94c1.28-.64,2.55-6.34,5.84-8.38C1729.71,1633.49,1727.51,1640.93,1725.22,1642.19Z"/><path class="cls-10" d="M1882.46,1642.29h17.44c5.85-.92,10.16-2.61,16.16-3.39,9.1-1.2,13.29,2.53,14.12,3.39a1.62,1.62,0,0,1,.16.18h74.1c1.87-2.67.08-8.83-1.67-13.37a10.58,10.58,0,0,0-6.94-6.34c-7.86-2.28-23.35-4.3-37.54-17.15-8-7.21-38.54-26.52-38.54-26.52l-.16,0c-.67,0-3.87,1-17.77,12.73-7.19,6-19.43-8.56-19.43-8.56a17.44,17.44,0,0,0-4,5.45,18.39,18.39,0,0,0-1.59,11.38c1.1,6.67-2.46,19.08-5.31,27.47-1.73,5.09-3.18,8.69-3.18,8.69S1867.45,1640.41,1882.46,1642.29Z"/><path class="cls-14" d="M1882.49,1642.54h17.37c5.85-.92,10.2-2.86,16.2-3.64,9.1-1.2,13.29,2.53,14.12,3.39a1.62,1.62,0,0,1,.16.18h74.1c1.87-2.67.08-8.83-1.67-13.37-2.25-2-2.89,8.69-4.13,10.39s-60.45.63-63.87-1.86-13.68-6.84-28-3.42c-12.44,3-30.78-4.65-35.32-6.68-1.73,5.09-3.18,8.69-3.18,8.69S1867.49,1640.66,1882.49,1642.54Z"/><path class="cls-15" d="M1814.36,620.5s69.43,34.17,109.56,21.5a96.45,96.45,0,0,0-27.1-22.09c1-5.84,1.77-11.17,2.39-15.93a249.59,249.59,0,0,0,2.31-27L1859,542.69l-9.55-7.7a121,121,0,0,1-1.3,22.63c-.08.55-.16,1.1-.25,1.64C1841,600.54,1814.36,620.5,1814.36,620.5Z"/><path class="cls-16" d="M1774.73,984c-.2,4.42,8.91,9.28,12.86,11,17.56,7.88,34.4,14.33,51.68,18.92a228.16,228.16,0,0,0,37.21,6.74c37.17,3.82,81.11-4.56,96.18-4.35a6.54,6.54,0,0,0,4.22-1.61c1-.81,1.81-46.21,1-103.49,0-2.2,0-4.62-.2-6.83v-.8c-.2-22.31-1-45.82-2-69.12-2.21-51.45-6.22-101.08-13.06-128.62-8-32.34-26.52-53.64-43.4-69.31l-12-11.94a3.24,3.24,0,0,0-2.87-.87c-13.42,2.47-28.12,2.27-42.21-4.68-15.87-7.83-33.15-16.28-36-14.26-33,24.62-49.35,97.36-49,180.06,0,2.61,0,5.24.07,7.87.15,8.53.46,17.18,1,25.86,3.59,61-.09,113.91-2.19,144.67C1775.35,972.14,1774.87,979.15,1774.73,984Z"/><path class="cls-17" d="M1774.73,984c-.2,4.42,8.91,9.28,12.86,11,17.56,7.88,34.4,14.33,51.68,18.92,48-154.9-9.46-305.05-9.46-305.05l-52.61,83.84c.15,8.53.46,17.18,1,25.86,3.59,61-.09,113.91-2.19,144.67C1775.35,972.14,1774.87,979.15,1774.73,984Z"/><path class="cls-16" d="M1848.48,733.06c-17.19-10.19-51.7-28.67-80.21-31.59a9.28,9.28,0,0,1-7.56-12.94c9-20.59,34.47-63.68,65.47-83.7,2.91-1.88,5.1-.25,8.12,1.45,11.44,6.42,36.07,25.4,37.59,47.78,1.34,19.91-5.48,54.44-9.61,73A9.29,9.29,0,0,1,1848.48,733.06Z"/><path class="cls-11" d="M1847.53,558.63s.11.22.34.63c2.68,4.81,21,35.83,51.34,44.72a249.59,249.59,0,0,0,2.31-27L1859,542.69a120,120,0,0,0-10.85,14.93Z"/><path class="cls-15" d="M1913.79,576s-66.28,11-72.5-30.37-19-67.83,23.09-76.61,52.67,5.77,58.11,19.08S1930.88,572.1,1913.79,576Z"/><path class="cls-18" d="M1932.77,464.15C1919,457.81,1852,426,1823.29,455a79.9,79.9,0,0,1-.44-9.72c-2.09,3.78-3,9.33-3.44,13.29-2.56-3.08-7.31-3.6-7.31-3.6a10.29,10.29,0,0,1,5.43,7.27c-28.46,42.33,14.76,85.4,20.7,92.11,6.13,6.94,9.64,4.89,9.64,4.89s10.82-14.65,5.56-24.27c0,0-8.8-8.89-3.73-14.49s8,2.94,12,2.67,11.2-12,11.73-22.67,39,5.61,54.49.54S1957,475.3,1932.77,464.15Z"/><path class="cls-10" d="M1775.75,830.05l-2-12.64c30.73-5,55.59-19.75,73.89-43.88,13.81-18.21,23.54-42.07,26.69-65.46,6.09-45.32-5.84-71.11-36.47-78.86-27.43-7-59.14,14.49-59.45,14.71l-7.26-10.54c1.48-1,36.74-25,69.86-16.58,25.81,6.53,54.75,28,46,93-2,15-8.48,44.22-29.17,71.49C1837.43,808.1,1809.83,824.51,1775.75,830.05Z"/><ellipse class="cls-8" cx="1734.04" cy="595.79" rx="40.69" ry="42.87"/><path class="cls-9" d="M1705.14,596.91a37.29,37.29,0,0,1,37.29-37.29c.91,0,1.8,0,2.69.1a37.29,37.29,0,1,0-12.36,73.2A37.3,37.3,0,0,1,1705.14,596.91Z"/><rect class="cls-19" x="2137.87" y="780.87" width="10.71" height="739.05"/><rect class="cls-10" x="2133.26" y="772.9" width="19.93" height="95.17" rx="6.84"/><path class="cls-10" d="M2153.75,1524.59h-21.06a5.3,5.3,0,0,1-5.31-5.3h0a5.31,5.31,0,0,1,5.31-5.31h21.06a5.31,5.31,0,0,1,5.31,5.31h0A5.3,5.3,0,0,1,2153.75,1524.59Z"/><path class="cls-19" d="M2143.25,1545.12h0a3.7,3.7,0,0,1-3.67-3.33l-1.71-17.2h10.7l-1.64,17.19A3.7,3.7,0,0,1,2143.25,1545.12Z"/><rect class="cls-19" x="1726.25" y="805.99" width="10.71" height="739.05" transform="translate(1086.82 -815.6) rotate(37.89)"/><path class="cls-10" d="M1907.44,954.61l-4.93-3.84a6.84,6.84,0,0,1-1.2-9.6l50-64.31a6.84,6.84,0,0,1,9.6-1.2l4.93,3.83a6.84,6.84,0,0,1,1.2,9.6l-50,64.32A6.84,6.84,0,0,1,1907.44,954.61Z"/><path class="cls-10" d="M1510.12,1477.31l-16.62-12.93a5.3,5.3,0,0,1-.92-7.45h0a5.3,5.3,0,0,1,7.45-.93l16.61,12.93a5.3,5.3,0,0,1,.93,7.45h0A5.31,5.31,0,0,1,1510.12,1477.31Z"/><path class="cls-19" d="M1489.24,1487.06h0a3.69,3.69,0,0,1-.86-4.88l9.21-14.62,8.45,6.57-11.85,12.55A3.69,3.69,0,0,1,1489.24,1487.06Z"/><path class="cls-15" d="M1953.35,917c-1.18-4.65-14.46-2.89-22.76-3.78a3.85,3.85,0,0,1-2.64-6.14l4.07-5.41c-6.09-1.23-13.17-2.23-16.06-1.86-3.34.42-13,4.21-19.94,7.07,0,0,0-.08,0-.08s-84.13-60.84-99-75.67c-10.83-10.68,52.49-97.43,51.45-98-17.2-10.23-51.75-28.76-80.22-31.73a7.49,7.49,0,0,1-3.12-.74c-14.43,31.18-29.19,69.65-37.53,110a68,68,0,0,0,26.85,69.11c29.44,21.14,76.06,48.22,129.17,55.36,0,0,28.53,11,43,10.67C1946.55,945.35,1954.91,923.15,1953.35,917Z"/><path class="cls-11" d="M2128.81,804.24s13.43-11,18.69,1.77c3.67,8.93-1.51,15.78-5,19.1a3.64,3.64,0,0,1-5.86-1.08c-.73-1.62-1.09-4-.27-7.31l-12.3,26.57Z"/><path class="cls-11" d="M2153.18,800.53s-8.06-.37-8.85,13.31-2.37,33.18,9.22,22.74S2153.18,800.53,2153.18,800.53Z"/><rect class="cls-19" x="1383.68" y="988.83" width="10.71" height="631.98" transform="translate(841.65 -520.65) rotate(30.1)"/><path class="cls-12" d="M1159.22,1063.77c1.44,3.5,7.7,6.6,16.72,8.84,20.21,5,54.29,5.69,79.14-3.52,26.66-9.86,46-150.73,54.21-222.93,2.86-25.18,4.38-42,4.38-42s-15.31-24-74.57-16-65.23,28-70.55,63.91S1154.56,1052.45,1159.22,1063.77Z"/><polygon class="cls-17" points="1213.42 740.86 1327.55 760.15 1318.84 799.38 1214.23 824.15 1213.42 740.86"/><ellipse class="cls-16" cx="1204.17" cy="782.6" rx="40.69" ry="42.87"/><path class="cls-17" d="M1175.27,783.72a37.29,37.29,0,0,1,37.29-37.29c.9,0,1.8.05,2.69.11a37.29,37.29,0,1,0-12.37,73.2A37.3,37.3,0,0,1,1175.27,783.72Z"/><path class="cls-11" d="M1541.77,1066.75c-.5-6.83-10.41-12.69-16.7-14.47-5-1.43-11.57-8.45-14-11.19-22.47-28.45-55.85-86.62-64.19-96.68-3-3.67-12.32-22.44-24.36-46.62-8.1-16.25-17.44-34.94-26.94-53.12-14.49,5.26-32,12.46-47.08,21.12,9.08,14.51,21.16,33.89,31.82,51.3,9.81,16,18.4,30.36,22.33,37.63,12,22.35,94.23,97.66,94.23,97.66l4.58,4.6a21.25,21.25,0,0,1,2.42,2.94c2.56,3.8,7.33,11.48,14.68,18.16,4.46,4.05,7.42,6.66,15.72,5.61C1544.77,1082.36,1542.26,1073.57,1541.77,1066.75Z"/><path class="cls-10" d="M1392.76,827.53s41,81.88,46.93,94.74c0,0-21.72,43.14-35.84,42.87S1392.76,827.53,1392.76,827.53Z"/><path class="cls-10" d="M1291.11,644.4c-.64-2.23-8.73-27.35-47.91-19,0,0,19.62-2.47,25,5.09,0,0-15.55-7.12-25.29-1.17s-11.34,26-9.88,32.12,12.2,24.27,19.33,24.27a21.15,21.15,0,0,0,8.12-2,94.76,94.76,0,0,0-2.89,10.59c-7.56,35.58,16.1,62.63,28.34,56,7.84-4.29,13.78,9.45,13.78,9.45l65.13-86.33S1319.46,618.82,1291.11,644.4Z"/><path class="cls-15" d="M1393.42,1070.9c-29.55-94.46,2.84-115-.24-162.26s-39.67-98.1-39.67-98.1-1.87-.19-5-.47c-2.46-1.3-3.11-11.57-3.08-22.42,0-13,1-26.83,1-26.83l-43.89-8.69-2.61-.51c.1,30.55-7.94,50.61-13.77,55.28-5.48.62-28.86,3.57-43.27,9.59-5.43,2.27-9.58,5-11,8.15-12.06,26.5-24.09,93.39-32.55,141.1-4.71,26.59-15.1,60.2-7.37,67.34l45.5-17.25c1.71-8.09,4.64-24.85,9.52-43,.74-2.74-.22-6.06.54-8.87,8.63,23.38,13,34.2,12.79,44.31-.34,14.37-10.09,27.3-30.47,73C1218.57,1106.54,1423.59,1167.38,1393.42,1070.9Z"/><path class="cls-11" d="M1346.43,760.82s-1,13.82-1,26.83c-24.56-.69-37.54-23.1-42.86-35.52Z"/><path class="cls-10" d="M1298,747.36s-12.87-20.34-16-37.73c-2.2-12.42,4.12-58.44,50.37-51.81a62.74,62.74,0,0,1,26,9.85c10,6.78,24.53,21.42,8.33,61.58l-4.21,13.57Z"/><path class="cls-15" d="M1354.63,773.15s-58.11,1-58.15-35.24-7.57-60.46,29.53-62.6,44.33,11.66,47.28,23.74S1369.74,772,1354.63,773.15Z"/><path class="cls-16" d="M1435.72,1616.75l-18.65,4.59a574.65,574.65,0,0,1-53.7-94.94c-15.45-34.72-28.89-74.35-31.6-111.18-1.22-16.67-.25-32.77,3.72-47.59,0,0-5.21-35-12.34-81.8-7.91-52-18.18-118.44-26.22-167.31l4.86-1.44,104.06-30.9s20.35,79.74,11,204.68c-1.91,25.63-5.07,53.16-9.91,82.31-8.27,49.8-4.87,99.87,2,141.55C1418.8,1574.32,1435.72,1616.75,1435.72,1616.75Z"/><path class="cls-17" d="M1416.89,1290.86l-81.56,150.58c-2.26-13.77-9.45-38.33.16-73.81,0,0-5.21-35-12.34-81.8-7.91-52-18.18-118.44-26.22-167.31l4.86-1.44,104.06-30.9S1426.2,1165.92,1416.89,1290.86Z"/><path class="cls-16" d="M1325.56,1376c-3.69,6.93-40.26,50.89-77,99.56-3.15,4.17-6.42,8.66-9.75,13.37-21.65,30.49-46.57,70.24-61.46,89.59-13.54,17.59-25.7-4.44-18.87-20.15,10.77-24.8,19.9-68.14,30.34-100a205.55,205.55,0,0,1,7.46-19.93c11.24-25.12,33.13-52.66,59.74-79.9,4.62-4.73-38.6-117.54-35.72-204.53,1.13-34.48,5.93-64.8,16.91-83.27l109.34,5.41S1361.52,1308.47,1325.56,1376Z"/><path class="cls-10" d="M1371.56,678.93c-9-10.87-15.75-8.51-19.55-5.25-31.16-17.28-70.34,1.41-70.34,1.41a450.1,450.1,0,0,0-4.53,47.82s10.59,6.54,35,.26c7.45-1.92,14.11-7.2,19.77-13.62A135.5,135.5,0,0,1,1308.6,738c29.16-13.48,40.88-54,42-58.34,3.55,3.19,10.54,10.11,12.67,16.89,2.9,9.22,4.2,28.2,9.74,27.55C1373.05,724.12,1385,695.25,1371.56,678.93Z"/><path class="cls-20" d="M1216.13,1114.28a25.89,25.89,0,0,0,.68,8.74c2.32,7.32,10.31,10.65,29.62,8.66,11.81-1.23,17.07-21,19.42-37.89,7.09,24.14,17,37.7,29.85,40.54,18.72,4.17,113.17,15.65,119.35-29.25,6.8-49.38-13.56-136.81-14.68-184a233.62,233.62,0,0,0,3.42-43.68c-.79-33.59-10.64-52.41-18.22-60-2.15-1.65-4.29-2.68-12.91-4.15-4.41-.75-10.51-1.62-19.15-2.76,0,0-3.73-.48-3.64-.35,1.59,2.86,18.78,28.17,17.12,36.5-1.75,8.71-67.84,7.46-73.08,2.66s-18.89-41-18.89-41-26.86,2.94-40,12.5l.14.16a11.06,11.06,0,0,0-3.45,3.64c-14,26.69-28,94.06-37.87,142.11,23.87,13.15,44.72,9.24,51.19,7.5C1236.57,1029.65,1217.39,1089.07,1216.13,1114.28Z"/><path class="cls-12" d="M1353.5,810.54l.13.2c2.57,4.07,42.87,68.49,46.74,110.38a233.62,233.62,0,0,0,3.42-43.68c-5.18-15.83-28.4-51.25-40.51-65.58C1362.41,810.84,1353.5,810.54,1353.5,810.54Z"/><path class="cls-15" d="M1363.37,1526.4a573.81,573.81,0,0,0,53.7,94.94l18.65-4.59s-16.92-42.43-26.74-102C1403.13,1519.05,1390.48,1524.63,1363.37,1526.4Z"/><path class="cls-10" d="M1402.33,1642.41h12.77c4.28-.67,7.44-1.91,11.83-2.48,6.67-.88,9.73,1.86,10.35,2.48l.11.13h54.27c1.37-2,.06-6.46-1.23-9.79a7.69,7.69,0,0,0-5.08-4.64c-5.75-1.67-17.1-3.15-27.49-12.56-5.84-5.28-28.22-19.42-28.22-19.42l-.12,0c-.49,0-2.83.73-13,9.33-5.27,4.43-14.24-6.27-14.24-6.27a12.94,12.94,0,0,0-2.94,4,13.44,13.44,0,0,0-1.16,8.33c.81,4.89-1.81,14-3.89,20.13-1.27,3.72-2.33,6.36-2.33,6.36S1391.34,1641,1402.33,1642.41Z"/><path class="cls-21" d="M1402.33,1642.41h12.77c4.28-.67,7.44-1.91,11.83-2.48,6.67-.88,9.73,1.86,10.35,2.48l.11.13h54.27c1.37-2,.06-6.46-1.23-9.79-1.65-1.46-2.11,6.37-3,7.61s-44.27.46-46.78-1.36-10-5-20.48-2.51c-9.12,2.18-22.55-3.4-25.87-4.88-1.27,3.72-2.33,6.36-2.33,6.36S1391.34,1641,1402.33,1642.41Z"/><path class="cls-10" d="M1216.13,1114.28c13-4.33,29.62-15.86,49.61-41.69,52.92-68.4,4.49-148.79-2-150.29s-18.71,52-18.71,52c-1.26,11.59-4.23,23.81-6.62,35.7-.24,1.19-.56,2.29-.75,3.47-2.15,13.81-.75,27-3.85,39.81-.06.26-5.65,1.15-5.72,1.41C1222,1079.9,1216.76,1101.63,1216.13,1114.28Z"/><path class="cls-1" d="M1337.93,751.77s1.11,4.46,12.22,3.64c0,0,9.32-.69,9-5.6C1359.13,749.81,1350,746.43,1337.93,751.77Z"/><path class="cls-15" d="M1238.83,1488.91c-21.65,30.49-46.57,70.24-61.46,89.59-13.54,17.59-25.7-4.44-18.87-20.15,10.77-24.8,19.9-68.14,30.34-100C1195.85,1469,1210.16,1482.73,1238.83,1488.91Z"/><path class="cls-10" d="M1206.34,1642.52s-31.83-4-39.77-14.28c-.94-1.21-3-12.35-3-12.47-.16-.89-1.23-5-7.48-8.14-4.11-2-7.71-2.5-11.62-4.71a111.9,111.9,0,0,1-11-7.39c-9-7.12-6.37-9.84-6.37-9.84s2.44-1.67,5.69-4.14c.88-.67,1.83-1.41,2.79-2.19,4.9-3.93,10.44-9,12.22-12.89a14,14,0,0,1,5.83-6.51,13.21,13.21,0,0,1,4.85-1.73s1.52,14.41,8.63,13.64c13.75-1.51,16.18-.77,16.61-.5l.09.09s7.91,22.56,9.89,30.49c3.51,14.13,9.7,20.15,13.42,25.15a12,12,0,0,1,1.95,3.94C1210.64,1636.44,1208.2,1641.82,1206.34,1642.52Z"/><path class="cls-21" d="M1206.34,1642.52s-31.83-4-39.77-14.28c-.94-1.21-3-12.35-3-12.47-.16-.89-1.23-5-7.48-8.14-4.11-2-7.71-2.5-11.62-4.71a111.9,111.9,0,0,1-11-7.39c-9-7.12-6.37-9.84-6.37-9.84s2.44-1.67,5.69-4.14c.88-.67,1.83-1.41,2.79-2.19.47,4.19,2.33,11.79,9.52,15.8,10.26,5.73,20.9,14.59,23.5,20.89s4.08,11.83,10.4,15,23.5,6.15,24.79,5.71c1-.35,2.59-4.5,5.28-5.69C1210.64,1636.44,1208.2,1641.82,1206.34,1642.52Z"/><path class="cls-12" d="M1255.64,811.61l-19.34,7.31c14,14.14,37.47,42.82,47.41,84.41,14.65,61.24-40.34,81.11-40.34,81.11l-4.83,24.74-.13.83s68.6-16.48,64.61-93.37C1300.25,863.32,1271.61,827.31,1255.64,811.61Z"/><path class="cls-10" d="M1506.47,1108.44l-5.41-3.13a6.84,6.84,0,0,1-2.48-9.35l40.86-70.5a6.84,6.84,0,0,1,9.35-2.49l5.4,3.14a6.83,6.83,0,0,1,2.49,9.34L1515.82,1106A6.84,6.84,0,0,1,1506.47,1108.44Z"/><path class="cls-10" d="M1237.34,1587.54,1219.12,1577a5.31,5.31,0,0,1-1.93-7.26h0a5.31,5.31,0,0,1,7.26-1.93l18.21,10.56a5.3,5.3,0,0,1,1.93,7.25h0A5.31,5.31,0,0,1,1237.34,1587.54Z"/><path class="cls-19" d="M1218,1600h0a3.69,3.69,0,0,1-1.51-4.72l7.14-15.74,9.26,5.37-10,14A3.69,3.69,0,0,1,1218,1600Z"/><rect class="cls-19" x="1108.46" y="951.09" width="10.71" height="631.98" transform="translate(1494.06 -376.54) rotate(54.34)"/><path class="cls-10" d="M1301.54,1136.25l-3.64-5.07a6.85,6.85,0,0,1,1.57-9.55l66.21-47.5a6.85,6.85,0,0,1,9.55,1.57l3.64,5.07a6.85,6.85,0,0,1-1.57,9.55l-66.22,47.5A6.84,6.84,0,0,1,1301.54,1136.25Z"/><path class="cls-10" d="M859.4,1462.55l-12.27-17.1a5.3,5.3,0,0,1,1.22-7.41h0a5.31,5.31,0,0,1,7.41,1.22L868,1456.37a5.3,5.3,0,0,1-1.22,7.4h0A5.3,5.3,0,0,1,859.4,1462.55Z"/><path class="cls-19" d="M836.61,1466h0a3.7,3.7,0,0,1,.56-4.92l13-11.42,6.25,8.7L841.46,1467A3.69,3.69,0,0,1,836.61,1466Z"/><path class="cls-15" d="M1215.87,995.34,1192,1033.08c41.34,28.54,88.27,44.17,118.67,63.94,2.94,2.14,11.76,6.34,13.65,11.22,2.35,6.09,7.27,13.89,14.11,13.76s17.13-4.9,18.48-11.75c.59-3-2.09-1.88-8.1-7.75-5-4.88-7.07-8-7.33-11-2.34-1.8-10.89-6.11-10.89-6.11-5.31-3.12-8.75-5.22-8.75-5.22h0S1242.73,1018.63,1215.87,995.34Z"/><path class="cls-11" d="M1529.07,1066.1c.2-1.79.47-3.66.83-5.37,1.23-5.71-9.32-10.78-9.32-10.78l-6,8.5s9.71,5.85,9.51,10.81a4.54,4.54,0,0,0,1.06,3.41c-2.1,5-2.83,10.57,3.56,11.12,8.67.74,12-20.66,12-20.66S1533.07,1062.66,1529.07,1066.1Z"/><path class="cls-15" d="M1237.66,1013.48a183.14,183.14,0,0,0,7.37-39.17S1233,1001,1237.66,1013.48Z"/><rect class="cls-1" x="137.99" y="1641.31" width="2724.01" height="7.23" rx="3.09"/></svg>