<svg id="Livello_2" data-name="Livello 2" xmlns="http://www.w3.org/2000/svg" viewBox="0 0 371.47 371.55"><defs><style>.cls-1{fill:#030504;}.cls-2{fill:#75bf91;}.cls-3{fill:#1c765e;}.cls-4{fill:#155f4c;}.cls-5{fill:#916658;}.cls-6{fill:#be9275;}.cls-7{fill:#60b283;}.cls-8{fill:#795449;}.cls-9{fill:#a37763;}.cls-10{fill:#906657;}.cls-11{fill:#60b284;}.cls-12{fill:#4c9e74;}.cls-13{fill:#916657;}.cls-14{fill:#785348;}</style></defs><title>Senza titolo-1</title><path class="cls-1" d="M118.42,434c0-13.85,0-27.69,0-41.53a8.53,8.53,0,0,0-1.7-5.49,20.87,20.87,0,0,1-4.31-13.58c.28-6.46-.92-13,.62-19.37,2.47-10.18,10.74-16.51,21.13-16.53,11.85,0,23.7-.12,35.54.08,2.86,0,3.34-.8,3.51-3.47a552.22,552.22,0,0,1,7.28-64.5,5.73,5.73,0,0,1,.22-1.47c4.62-9.21,3.55-19.11,3.5-28.87a45.44,45.44,0,0,1,9-27.47c1-1.41,2.19-2.72,3.34-4,4.8-5.46,10.19-8.92,18.13-8.12,7.41.76,14.95.26,22.43.12,3.44-.06,5.56,1.37,7,4.41a95.84,95.84,0,0,1,8,23.15c.65,3.35,1.83,4.24,5,3.93,17-1.69,34.11-1.59,51.19-1.5,10.35.05,20.68.61,31,1.52,2.66.23,3.89-.4,4.42-3.3a97.79,97.79,0,0,1,8.11-23.87c1.44-3.07,3.63-4.39,7.06-4.34,9.35.13,18.7.08,28.05,0a8.21,8.21,0,0,1,5.19,1.65c12.38,9.16,19.4,21.33,19.46,36.8a134.93,134.93,0,0,0,3.82,32.63c3.7,14.8,4.77,30.19,6,45.44.5,6.21,1.08,12.42,1.36,18.64.09,2.17.8,2.6,2.81,2.59,11.85-.09,23.69-.05,35.54,0,13.27,0,22.49,9.19,22.37,22.55-.06,6.45.81,12.95-.7,19.36a13.78,13.78,0,0,1-2.62,6.11c-2.58,2.89-2.67,6.15-2.66,9.7q.1,39.65,0,79.3c0,11-4.92,19.24-14.48,24.73A86,86,0,0,1,421.65,511c-2.52.05-3,1-3.27,3.21-1.13,8.24-2.21,16.52-3.91,24.66-3,14.28-15,24.41-29.53,26.86-41.09,6.9-82.49,5.33-123.83,4.93-17.05-.16-34-2.42-50.87-5.13-16.24-2.6-27.11-14.3-29.63-31.52-1-6.89-2.14-13.76-3-20.66-.27-2.06-1.25-2.27-3-2.31a86.78,86.78,0,0,1-41.83-11.86c-9.4-5.41-14.34-13.49-14.37-24.41C118.4,461.14,118.42,447.55,118.42,434Zm161.63-48.49c-4.5,1-5.93,2.65-6,7q-.09,10.78,0,21.55c0,4.41,1.45,6,6,7.05,3.09.05,6.18,0,9.27.17,2.12.12,2.68-.68,2.77-2.75.14-3.13-.95-6.37.7-9.38,2.87,0,5.74.17,8.6.09,1.84-.05,2.59.42,2.68,2.47.13,3.13-1.63,7.42.9,9.1,2.26,1.5,6.27.39,9.51.42.49,0,1-.08,1.49-.12,4.47-1,5.93-2.67,6-7.05q.09-10.77,0-21.55c0-4.38-1.5-6-6-7H280.05ZM376,534.18c-.05,4.49-.12,9-.14,13.45,0,6.74,0,6.74,6.44,6,11.25-1.22,19.21-9.07,20.72-20.13.28-2-.19-2.45-1.95-2.32L387,532.29l-9.06.45C376.91,532.79,375.84,532.68,376,534.18ZM129.64,350.9c-3.86,1.64-5.06,4.93-5.19,8.71-.14,4.35-.09,8.71,0,13.07.11,7.51,5.18,12.59,12.74,12.64,10.7.07,21.41-.06,32.11.08,2.48,0,3.11-.74,3.08-3.14-.11-9,0-17.92,0-26.88,0-6.15.08-6.15-6.08-5.83q-15.89-.06-31.78-.1A7,7,0,0,0,129.64,350.9Zm336.75,0a7.07,7.07,0,0,0-4.87-1.45q-15.9,0-31.79.1c-1.24,0-2.5,0-3.73-.13-2.07-.23-2.45.76-2.43,2.62q.18,15.3.11,30.61c0,2.09.56,2.77,2.71,2.75,10.95-.1,21.91,0,32.86-.08,7.14-.07,12.17-5.15,12.34-12.27.1-4.48.12-9,0-13.44C471.46,355.81,470.24,352.53,466.39,350.89ZM292.05,301.67c-6-.31-6-.31-6,5.67,0,20.58.11,41.15-.1,61.73,0,3.8,1.19,4.88,4.62,4.3.49-.08,1-.08,1.49-.12,5.11,0,10.22,0,15.32.16,2.28.08,2.65-.88,2.64-2.86q-.08-33.09,0-66.19c0-2-.36-2.94-2.64-2.86C302.27,301.69,297.16,301.63,292.05,301.67ZM136.42,397.43a7.31,7.31,0,0,1-1.49-.13c-4.17-1.34-4.64.6-4.62,4.31.17,24.06.06,48.12.11,72.18,0,6.75,2.87,11.83,9,15.21a83.54,83.54,0,0,0,34.08,10c1.73.15,2.27-.15,2.07-2.22-1.65-16.71-3-33.43-3.18-50.23-.12-14.95-.18-29.92.06-44.87.06-3.79-1.18-4.92-4.63-4.34-.49.09-1,.08-1.49.12Zm327.71,82.93c1.37-2.21,1.51-4.66,1.51-7.17q0-35.26,0-70.53c0-5.43,0-5.39-5.28-5.36-10.2.07-20.4.09-30.6.13-6-.28-6-.28-6,5.71,0,15.57.13,31.14-.09,46.71-.12,7.94-1.07,15.87-1.26,23.81s-1.36,15.59-1.94,23.39c-.15,2.08.74,2,2.08,1.91,12.29-1,24-4.07,34.71-10.31C460.53,486.72,463.32,484.38,464.13,480.36ZM214.92,496.13c4.77,1.39,4.82,1.35,4.69-3.31,0-.88,0-1.75,0-2.62-.35-20.67-.47-41.34-1.11-62-.64-20.26-2-40.5-2.62-60.76-.2-6.7-.5-12.84-6.73-16.91-.1-.06-.16-.19-.24-.29a35.47,35.47,0,0,1-6-12.72q-4-14.72-8.17-29.41c-1.52-5.46-3.08-10.92-4.62-16.37a139.62,139.62,0,0,0-2.23,14.52A415.81,415.81,0,0,0,184.45,359c-.21,33.74-.83,67.49.51,101.23.43,10.81,1.68,21.54,2.3,32.32.09,1.66.93,2,2.38,2.12A218,218,0,0,0,214.92,496.13Zm59-158.69q.06-20,.12-40c0-6.07,1.88-7.91,8.07-7.91h31.38c6.69,0,8.43,1.72,8.45,8.28q0,19.8.12,39.59c0,3.11,0,6.21-.16,9.3-.13,2.1.53,2.75,2.67,2.73,13.16-.09,26.32,0,39.48-.09a17,17,0,0,0,16.19-11.93,3,3,0,0,0,.39-.64q9.89-35.3,19.76-70.61a4.68,4.68,0,0,0-.47-3.92c-4.72-7.7-11.24-13.18-20.21-14.64-24.26-3.95-48.76-5.43-73.31-5.9a584.44,584.44,0,0,0-81.29,4.54c-6.36.77-13,1.06-18.39,5.25-4.05,2.16-7,5.46-9.65,9.12a7,7,0,0,0-1.11,6.6c6.42,22.69,12.64,45.44,19,68.16,2.51,9,9,14,18.29,14,9.85,0,19.69.07,29.54,0,3.69,0,8.73,1.65,10.7-.72S274.07,341.29,273.94,337.44Zm23.94,161.5c13.1.51,26.16-.62,39.25-.54,2.4,0,2.87-.93,2.89-3.08.13-10.22.42-20.43.64-30.65.29-13.58.25-27.18,1-40.73.43-7.71.34-15.43.88-23.14.84-12.3,1.23-24.62,1.88-36.93.11-2.06-.77-2.55-2.63-2.5-3.49.1-7,0-10.48,0-9.37,0-9.32,0-9.39,9.2,0,2.39.36,3.92,2.84,5.28,6.12,3.38,9.21,8.86,9.18,16,0,7.61-.07,15.21,0,22.82.05,5.73-1.64,11.22-6.47,13.94-5.72,3.22-6.05,7.62-5.54,12.93.1,1,0,2,0,3a6.33,6.33,0,0,1-3.09,6c-5.71,3.78-11.4,7.6-17.1,11.4a6.29,6.29,0,0,1-7.65-.07c-2.79-1.89-5.64-3.68-8.4-5.6-14.05-9.74-11.41-4.92-11.61-21.2a4,4,0,0,0-2.41-4c-6.39-3.56-9.71-9-9.63-16.49s.06-15.21,0-22.82c0-6,2-11.51,7.15-14.38,4.76-2.67,5.35-6.1,4.85-10.61a11.39,11.39,0,0,1,0-2.61c.25-2.13-.64-2.82-2.75-2.77-5.36.12-10.73.22-16.08,0-3-.14-3.84.86-3.65,3.78.8,12.67,1.61,25.34,2.07,38,.71,19.92,1.16,39.85,1.68,59.78.28,10.83.53,21.67.64,32.51,0,2.31.76,3,3,3C272,498.33,284.91,499.45,297.88,498.94ZM406.27,290.75c-.6,2-1,3.12-1.3,4.28-4.17,14.82-8.37,29.64-12.46,44.48A29.6,29.6,0,0,1,383,354.38a5.27,5.27,0,0,0-2.21,4c-.59,11.18-1.57,22.35-1.85,33.53-.49,19.42-1.43,38.83-1.91,58.25-.36,14.45-.25,28.9-.65,43.35,0,1.83-.24,3.52,2.57,3.28,9.17-.78,18.34-1.45,27.52-2.1,1.53-.11,2.13-.64,2.29-2.22,1.52-15.11,2.71-30.26,2.76-45.42.14-39.37,1.28-78.75-1.28-118.09C409.44,316.47,408.27,304,406.27,290.75ZM351.89,490.51q0,29.34,0,58.69c0,2.59-.8,6,.51,7.58,1.49,1.82,4.81-.36,7.39-.14,3.06.26,4.15-1,4.15-4.35,0-26.78-.18-53.57.43-80.36.8-35.11,1.86-70.22,3.86-105.29.3-5.25.28-5.25-4.79-5.24-1.5,0-3,.1-4.49,0-1.95-.16-2.53.61-2.62,2.54-.63,14.93-1.51,29.85-2,44.79Q352.84,449.59,351.89,490.51Zm-108.28-8.13c-.5-39.06-1.83-76.65-3.87-114.22-.37-6.74-.22-6.75-7-6.76-5.2,0-5.26,0-4.92,5.48,1.77,28.09,2.67,56.23,3.45,84.36.89,32,1.12,64,.94,96.06,0,2.84-1.11,6.28.5,8.37s5.24.64,7.86,1.42c3.13.93,3.68-.38,3.65-3.27C244,529.52,244.39,505.23,243.61,482.38Zm54.58,76.56c12.94-.08,25.89.21,38.82-.67,2.3-.16,3-.83,2.94-3.07-.12-6-.15-12,0-17.94.07-2.58-.93-3.25-3.28-3-3.21.31-6.44.64-9.66.63-22.41-.11-44.83.86-67.23-.56-2.55-.17-3.89.24-3.76,3.32.24,5.85.15,11.72,0,17.57-.05,2.22.61,2.93,2.92,3.08C272.05,559.13,285.12,558.88,298.19,558.94Zm-.55-36c12.23.39,24.17-.35,36.12-.57,6.15-.11,6.15-.06,6.16-6.08,0-6.35,0-6.09-6.32-5.82q-35.67,1.5-71.34,0c-6.19-.27-6.18-.48-6.16,5.61a26.9,26.9,0,0,1,0,3.36c-.29,2.36.75,3,3,2.94C272,522.29,285,523.4,297.64,522.9ZM214.21,223.57c0,3.24.06,6.48,0,9.71-.05,1.84.45,2.2,2.37,1.94q10.69-1.47,21.45-2.41c2.31-.21,2.8-1.12,2.3-3.06a101,101,0,0,0-5-15.59c-.74-1.71-1.61-2.5-3.56-2.45q-7.29.21-14.57,0c-2.2-.06-3.17.5-3,2.89C214.35,217.59,214.21,220.58,214.21,223.57Zm167.61.28c0-3.12-.11-6.23,0-9.34.1-2.08-.58-2.85-2.73-2.79-5,.13-10,.11-14.94,0a3.12,3.12,0,0,0-3.37,2.18,100.61,100.61,0,0,0-5.11,15.94c-.51,2.06.23,2.76,2.42,2.95,5.8.51,11.59,1.27,17.36,2.07,6.35.88,6.34.95,6.34-5.41Zm-161.63,320c0-.5,0-1,0-1.49-.25-3.07,1.21-6.72-.67-9-1.46-1.81-5-.32-7.51-.79a6.31,6.31,0,0,0-.72-.18c-5.45-.38-10.89-.79-16.34-1.1-1-.06-2.39-.46-2.06,1.57.78,4.72,2.11,9.09,5.32,12.88,5.28,6.24,12.5,7.65,20,8.66,1.77.24,2.06-.85,2-2.28C220.16,549.37,220.18,546.63,220.19,543.89ZM375.91,514.7h0v1.49c0,5,0,4.87,4.95,4.34,5.29-.57,10.62-.92,15.94-1.17,10.56-.5,8.08,1.24,9.88-9.31.43-2.48-.22-3-2.53-2.83-8.66.6-17.32,1.09-26,1.56-1.53.08-2.31.58-2.23,2.2C376,512.22,375.91,513.46,375.91,514.7ZM220.15,515h0c0-1.24,0-2.49,0-3.73.08-1.64-.4-2.45-2.28-2.55-7.06-.36-14.12-1.14-21.18-1.31-7.63-.2-7.88-1.94-6.72,7.31.47,3.73,1.87,4.47,5.09,4.57,7,.24,13.91.55,20.82,1.27,3.26.34,4.79-.17,4.24-3.69A13,13,0,0,1,220.15,515Zm78.23-81.78c-3.24,0-6.47.07-9.71,0-1.83-.05-2.5.45-2.71,2.47-.45,4.39.85,7.24,4.88,9.63,7.33,4.36,7,4.34,14.35,0,4.06-2.4,5.3-5.26,4.87-9.64-.2-2-.9-2.52-2.72-2.46C304.36,433.3,301.37,433.23,298.38,433.23Zm-102-189.13c2.21-2.41,5.65-2.41,5.78-5.43.24-5.73.07-11.48.07-17.22C197.26,228.05,195.87,235.39,196.37,244.1Zm197.42-22.59c0,5,.3,9.93-.1,14.85-.28,3.49,1.66,4.81,4.11,6.19,1.53.86,2,.32,2-1.21C399.89,234.17,398.4,227.44,393.79,221.51Z" transform="translate(-112.27 -199.51)"/><path class="cls-2" d="M322.08,337.44q-.06-19.79-.12-39.59c0-6.56-1.76-8.28-8.45-8.28H282.13c-6.19,0-8.05,1.84-8.07,7.91q0,20-.12,40c-8.72,0-17.45,0-26.17,0a18.93,18.93,0,0,1-3.68-.4c-10.82-2.16-16.44-9.48-19.21-19.53q-9.1-33-18.14-66c5.43-4.19,12-4.48,18.39-5.25a584.44,584.44,0,0,1,81.29-4.54c24.55.47,49.05,1.95,73.31,5.9,9,1.46,15.49,6.94,20.21,14.64a4.68,4.68,0,0,1,.47,3.92q-9.87,35.31-19.76,70.61a3,3,0,0,1-.39.64Z" transform="translate(-112.27 -199.51)"/><path class="cls-3" d="M297.88,498.94c-13,.51-25.91-.61-38.87-.55-2.26,0-3-.65-3-3-.11-10.84-.36-21.68-.64-32.51-.52-19.93-1-39.86-1.68-59.78-.46-12.69-1.27-25.36-2.07-38-.19-2.92.61-3.92,3.65-3.78,5.35.25,10.72.15,16.08,0,2.11-.05,3,.64,2.75,2.77a11.39,11.39,0,0,0,0,2.61c.5,4.51-.09,7.94-4.85,10.61-5.13,2.87-7.19,8.34-7.15,14.38q.09,11.41,0,22.82c-.08,7.46,3.24,12.93,9.63,16.49a4,4,0,0,1,2.41,4c.2,16.28-2.44,11.46,11.61,21.2,2.76,1.92,5.61,3.71,8.4,5.6a6.29,6.29,0,0,0,7.65.07c5.7-3.8,11.39-7.62,17.1-11.4a6.33,6.33,0,0,0,3.09-6c-.06-1,.07-2,0-3-.51-5.31-.18-9.71,5.54-12.93,4.83-2.72,6.52-8.21,6.47-13.94-.08-7.61-.05-15.21,0-22.82,0-7.12-3.06-12.6-9.18-16-2.48-1.36-2.85-2.89-2.84-5.28.07-9.2,0-9.2,9.39-9.2,3.5,0,7,.07,10.48,0,1.86-.05,2.74.44,2.63,2.5-.65,12.31-1,24.63-1.88,36.93-.54,7.71-.45,15.43-.88,23.14-.75,13.55-.71,27.15-1,40.73-.22,10.22-.51,20.43-.64,30.65,0,2.15-.49,3.09-2.89,3.08C324,498.32,311,499.45,297.88,498.94Z" transform="translate(-112.27 -199.51)"/><path class="cls-3" d="M406.27,290.75c2,13.25,3.17,25.72,4,38.22,2.56,39.34,1.42,78.72,1.28,118.09-.05,15.16-1.24,30.31-2.76,45.42-.16,1.58-.76,2.11-2.29,2.22-9.18.65-18.35,1.32-27.52,2.1-2.81.24-2.62-1.45-2.57-3.28.4-14.45.29-28.9.65-43.35.48-19.42,1.42-38.83,1.91-58.25.28-11.18,1.26-22.35,1.85-33.53a5.27,5.27,0,0,1,2.21-4,29.6,29.6,0,0,0,9.49-14.87C396.6,324.67,400.8,309.85,405,295,405.29,293.87,405.67,292.72,406.27,290.75Z" transform="translate(-112.27 -199.51)"/><path class="cls-4" d="M214.92,496.13a218,218,0,0,1-25.28-1.45c-1.45-.15-2.29-.46-2.38-2.12-.62-10.78-1.87-21.51-2.3-32.32-1.34-33.74-.72-67.49-.51-101.23a415.81,415.81,0,0,1,3.44-52.75,139.62,139.62,0,0,1,2.23-14.52c1.54,5.45,3.1,10.91,4.62,16.37q4.11,14.7,8.17,29.41a35.47,35.47,0,0,0,6,12.72c-1.2,1.28-.64,2.86-.64,4.28.16,34.57-1,69.17,2.25,103.67.52,5.53,1.51,11,1.93,16.57C213,481.93,214.83,488.92,214.92,496.13Z" transform="translate(-112.27 -199.51)"/><path class="cls-5" d="M429.74,397.43c10.2,0,20.4-.06,30.6-.13,5.28,0,5.28-.07,5.28,5.36q0,35.26,0,70.53c0,2.51-.14,5-1.51,7.17-1.53.52-3.08,1-4.58,1.55-8.4,3.25-17.18,4.59-26.11,5.23-3,.21-3.81-.79-3.8-3.75C429.76,454.73,429.73,426.08,429.74,397.43Z" transform="translate(-112.27 -199.51)"/><path class="cls-5" d="M136.42,397.43h29.86c0,27.52,0,55,.09,82.56,0,3.44-1.17,3.77-4,2.7a97.29,97.29,0,0,1-15.18-7.13c-6.78-4-10.71-10-10.76-18C136.31,437.53,136.41,417.48,136.42,397.43Z" transform="translate(-112.27 -199.51)"/><path class="cls-6" d="M351.89,490.51q.9-40.92,2.4-81.81c.54-14.94,1.42-29.86,2-44.79.09-1.93.67-2.7,2.62-2.54,1.49.13,3,0,4.49,0,5.07,0,5.09,0,4.79,5.24-2,35.07-3.06,70.18-3.86,105.29-.61,26.79-.44,53.58-.43,80.36,0,3.34-1.09,4.61-4.15,4.35-2.58-.22-5.9,2-7.39.14-1.31-1.6-.51-5-.51-7.58Q351.87,519.85,351.89,490.51Z" transform="translate(-112.27 -199.51)"/><path class="cls-6" d="M243.61,482.38c.78,22.85.39,47.14.58,71.44,0,2.89-.52,4.2-3.65,3.27-2.62-.78-6.27.64-7.86-1.42s-.51-5.53-.5-8.37c.18-32-.05-64-.94-96.06-.78-28.13-1.68-56.27-3.45-84.36-.34-5.49-.28-5.49,4.92-5.48,6.81,0,6.66,0,7,6.76C241.78,405.73,243.11,443.32,243.61,482.38Z" transform="translate(-112.27 -199.51)"/><path class="cls-4" d="M298.19,558.93c-13.07,0-26.14.2-39.2-.66-2.31-.15-3-.86-2.92-3.08.12-5.85.21-11.72,0-17.57-.13-3.08,1.21-3.49,3.76-3.32,22.4,1.42,44.82.45,67.23.56,3.22,0,6.45-.32,9.66-.63,2.35-.22,3.35.45,3.28,3-.17,6-.14,12,0,17.94.05,2.24-.64,2.91-2.94,3.07C324.08,559.15,311.13,558.86,298.19,558.93Z" transform="translate(-112.27 -199.51)"/><path class="cls-7" d="M206.74,251.53q9.06,33,18.14,66c2.77,10.05,8.39,17.37,19.21,19.53a18.93,18.93,0,0,0,3.68.4c8.72,0,17.45,0,26.17,0,.13,3.85,1.6,8.73-.47,11.23s-7,.68-10.7.72c-9.85.1-19.69.06-29.54,0-9.3,0-15.78-5-18.29-14-6.32-22.72-12.54-45.47-19-68.16a7,7,0,0,1,1.11-6.6C199.73,257,202.69,253.69,206.74,251.53Z" transform="translate(-112.27 -199.51)"/><path class="cls-8" d="M136.42,397.43c0,20.05-.11,40.1,0,60.15.05,8,4,14,10.76,18a97.29,97.29,0,0,0,15.18,7.13c2.84,1.07,4,.74,4-2.7-.11-27.52-.08-55-.09-82.56.49,0,1,0,1.49-.12,3.45-.58,4.69.55,4.63,4.34-.24,15-.18,29.92-.06,44.87.15,16.8,1.53,33.52,3.18,50.23.2,2.07-.34,2.37-2.07,2.22a83.54,83.54,0,0,1-34.08-10c-6.08-3.38-8.94-8.46-9-15.21,0-24.06.06-48.12-.11-72.18,0-3.71.45-5.65,4.62-4.31A7.31,7.31,0,0,0,136.42,397.43Z" transform="translate(-112.27 -199.51)"/><path class="cls-9" d="M292.05,301.67c5.11,0,10.22,0,15.32-.17,2.28-.08,2.65.88,2.64,2.86q-.08,33.11,0,66.19c0,2-.36,2.94-2.64,2.86-5.1-.18-10.21-.12-15.32-.16Z" transform="translate(-112.27 -199.51)"/><path class="cls-3" d="M214.92,496.13c-.09-7.21-2-14.2-2.5-21.37-.42-5.54-1.41-11-1.93-16.57-3.26-34.5-2.09-69.1-2.25-103.67,0-1.42-.56-3,.64-4.28.08.1.14.23.24.29,6.23,4.07,6.53,10.21,6.73,16.91.6,20.26,2,40.5,2.62,60.76.64,20.66.76,41.33,1.11,62,0,.87,0,1.74,0,2.62C219.74,497.48,219.69,497.52,214.92,496.13Z" transform="translate(-112.27 -199.51)"/><path class="cls-10" d="M297.64,522.9c-12.69.5-25.63-.61-38.58-.56-2.23,0-3.27-.58-3-2.94a26.9,26.9,0,0,0,0-3.36c0-6.09,0-5.88,6.16-5.61q35.67,1.51,71.34,0c6.35-.27,6.34-.53,6.32,5.82,0,6,0,6-6.16,6.08C321.81,522.55,309.87,523.29,297.64,522.9Z" transform="translate(-112.27 -199.51)"/><path class="cls-11" d="M429.73,349.54q15.88-.06,31.79-.1a7.07,7.07,0,0,1,4.87,1.45c-.31,4.69.32,9.37-.66,14.08-1.86,9-9.88,15-19.68,14.38-8.37-.56-16.25-9-16.34-17.51C429.67,357.74,429.72,353.64,429.73,349.54Z" transform="translate(-112.27 -199.51)"/><path class="cls-11" d="M129.64,350.9a7,7,0,0,1,4.87-1.45q15.88,0,31.78.1c-.17,5.33.41,10.67-.68,16-1.53,7.53-9.35,13.77-17.74,13.82-8.09,0-16-6.21-17.51-13.59C129.33,360.82,129.84,355.85,129.64,350.9Z" transform="translate(-112.27 -199.51)"/><path class="cls-8" d="M429.74,397.43c0,28.65,0,57.3-.1,86,0,3,.84,4,3.8,3.75,8.93-.64,17.71-2,26.11-5.23,1.5-.58,3.05-1,4.58-1.55-.81,4-3.6,6.36-6.91,8.29-10.74,6.24-22.42,9.3-34.71,10.31-1.34.11-2.23.17-2.08-1.91.58-7.8,1.75-15.54,1.94-23.39s1.14-15.87,1.26-23.81c.22-15.57.08-31.14.09-46.71C423.73,397.15,423.72,397.15,429.74,397.43Z" transform="translate(-112.27 -199.51)"/><path class="cls-12" d="M129.64,350.9c.2,5-.31,9.92.72,14.87,1.55,7.38,9.42,13.63,17.51,13.59,8.39-.05,16.21-6.29,17.74-13.82,1.09-5.32.51-10.66.68-16,6.16-.32,6.12-.32,6.08,5.83-.06,9-.13,17.92,0,26.88,0,2.4-.6,3.17-3.08,3.14-10.7-.14-21.41,0-32.11-.08-7.56-.05-12.63-5.13-12.74-12.64-.06-4.36-.11-8.72,0-13.07C124.58,355.83,125.78,352.54,129.64,350.9Z" transform="translate(-112.27 -199.51)"/><path class="cls-9" d="M292.05,385.47H316q0,17.83,0,35.65c-.5,0-1,.13-1.49.12-3.24,0-7.25,1.08-9.51-.42-2.53-1.68-.77-6-.9-9.1-.09-2.05-.84-2.52-2.68-2.47-2.86.08-5.73-.05-8.6-.09C291.24,401.3,292.34,393.36,292.05,385.47Z" transform="translate(-112.27 -199.51)"/><path class="cls-12" d="M429.73,349.54c0,4.1-.06,8.2,0,12.3.09,8.51,8,17,16.34,17.51,9.8.67,17.82-5.36,19.68-14.38,1-4.71.35-9.39.66-14.08,3.85,1.64,5.07,4.92,5.19,8.71.13,4.47.11,9,0,13.44-.17,7.12-5.2,12.2-12.34,12.27-10.95.11-21.91,0-32.86.08-2.15,0-2.72-.66-2.71-2.75q.09-15.3-.11-30.61c0-1.86.36-2.85,2.43-2.62C427.23,349.55,428.49,349.5,429.73,349.54Z" transform="translate(-112.27 -199.51)"/><path class="cls-11" d="M322.08,337.44h58.18a17,17,0,0,1-16.19,11.93c-13.16.14-26.32,0-39.48.09-2.14,0-2.8-.63-2.67-2.73C322.11,343.65,322,340.55,322.08,337.44Z" transform="translate(-112.27 -199.51)"/><path class="cls-13" d="M214.21,223.57c0-3,.14-6-.05-9-.15-2.39.82-3,3-2.89q7.27.19,14.57,0c1.95-.05,2.82.74,3.56,2.45a101,101,0,0,1,5,15.59c.5,1.94,0,2.85-2.3,3.06q-10.74.93-21.45,2.41c-1.92.26-2.42-.1-2.37-1.94C214.27,230.05,214.21,226.81,214.21,223.57Z" transform="translate(-112.27 -199.51)"/><path class="cls-13" d="M381.82,223.85v5.6c0,6.36,0,6.29-6.34,5.41-5.77-.8-11.56-1.56-17.36-2.07-2.19-.19-2.93-.89-2.42-2.95a100.61,100.61,0,0,1,5.11-15.94,3.12,3.12,0,0,1,3.37-2.18c5,.11,10,.13,14.94,0,2.15-.06,2.83.71,2.73,2.79C381.71,217.62,381.82,220.73,381.82,223.85Z" transform="translate(-112.27 -199.51)"/><path class="cls-4" d="M220.19,543.89c0,2.74,0,5.48,0,8.22,0,1.43-.27,2.52-2,2.28-7.46-1-14.68-2.42-20-8.66-3.21-3.79-4.54-8.16-5.32-12.88-.33-2,1.08-1.63,2.06-1.57,5.45.31,10.89.72,16.34,1.1a6.31,6.31,0,0,1,.72.18c2.55.47,6.05-1,7.51.79,1.88,2.33.42,6,.67,9C220.22,542.89,220.19,543.39,220.19,543.89Z" transform="translate(-112.27 -199.51)"/><path class="cls-4" d="M387,532.29l14.1-1.06c1.76-.13,2.23.3,1.95,2.32-1.51,11.06-9.47,18.91-20.72,20.13-6.45.69-6.46.69-6.44-6,0-4.48.09-9,.14-13.45,3.13-.25,6.23-1,9.41-.73A1.28,1.28,0,0,0,387,532.29Z" transform="translate(-112.27 -199.51)"/><path class="cls-5" d="M292.05,385.47c.29,7.89-.81,15.83.74,23.69-1.65,3-.56,6.25-.7,9.38-.09,2.07-.65,2.87-2.77,2.75-3.09-.18-6.18-.12-9.27-.17V385.47Z" transform="translate(-112.27 -199.51)"/><path class="cls-5" d="M292.05,301.67v71.58c-.5,0-1,0-1.49.12-3.43.58-4.66-.5-4.62-4.3.21-20.58.1-41.15.1-61.73C286,301.36,286,301.36,292.05,301.67Z" transform="translate(-112.27 -199.51)"/><path class="cls-10" d="M375.91,514.7c0-1.24,0-2.48,0-3.72-.08-1.62.7-2.12,2.23-2.2,8.67-.47,17.33-1,26-1.56,2.31-.16,3,.35,2.53,2.83-1.8,10.55.68,8.81-9.88,9.31-5.32.25-10.65.6-15.94,1.17-5,.53-5,.69-4.95-4.34V514.7Z" transform="translate(-112.27 -199.51)"/><path class="cls-8" d="M220.15,515a13,13,0,0,0,0,1.87c.55,3.52-1,4-4.24,3.69-6.91-.72-13.87-1-20.82-1.27-3.22-.1-4.62-.84-5.09-4.57-1.16-9.25-.91-7.51,6.72-7.31,7.06.17,14.12.95,21.18,1.31,1.88.1,2.36.91,2.28,2.55-.05,1.24,0,2.49,0,3.73Z" transform="translate(-112.27 -199.51)"/><path class="cls-13" d="M298.38,433.23c3,0,6,.07,9,0,1.82-.06,2.52.43,2.72,2.46.43,4.38-.81,7.24-4.87,9.64-7.38,4.34-7,4.36-14.35,0-4-2.39-5.33-5.24-4.88-9.63.21-2,.88-2.52,2.71-2.47C291.91,433.3,295.14,433.23,298.38,433.23Z" transform="translate(-112.27 -199.51)"/><path class="cls-3" d="M316,421.12q0-17.82,0-35.65c4.48,1,5.94,2.67,6,7q.09,10.77,0,21.55C321.9,418.45,320.44,420.08,316,421.12Z" transform="translate(-112.27 -199.51)"/><path class="cls-3" d="M280.05,385.47v35.65c-4.51-1.05-5.93-2.64-6-7.05q-.09-10.77,0-21.55C274.12,388.12,275.55,386.52,280.05,385.47Z" transform="translate(-112.27 -199.51)"/><path class="cls-14" d="M196.37,244.1c-.5-8.71.89-16,5.85-22.65,0,5.74.17,11.49-.07,17.22C202,241.69,198.58,241.69,196.37,244.1Z" transform="translate(-112.27 -199.51)"/><path class="cls-14" d="M393.79,221.51c4.61,5.93,6.1,12.66,6,19.83,0,1.53-.45,2.07-2,1.21-2.45-1.38-4.39-2.7-4.11-6.19C394.09,231.44,393.79,226.46,393.79,221.51Z" transform="translate(-112.27 -199.51)"/><path class="cls-3" d="M387,532.29a1.28,1.28,0,0,1-1.56,1.16c-3.18-.28-6.28.48-9.41.73-.14-1.5.93-1.39,1.91-1.44Z" transform="translate(-112.27 -199.51)"/><rect x="179.33" y="209.36" width="12.93" height="14.07" rx="2.27"/></svg>