<svg id="Livello_2" data-name="Livello 2" xmlns="http://www.w3.org/2000/svg" viewBox="0 0 293.05 352.52"><defs><style>.cls-1{fill:#1d9738;}.cls-2{fill:#b0dcf2;}.cls-3{fill:#197bb6;}.cls-4{fill:#05a3d3;}.cls-5{fill:#fff;}</style></defs><title>Logo</title><path class="cls-1" d="M434.81,268.41A145.8,145.8,0,0,1,407,330q-2.53,3.3-5.27,6.45h0l-8.66,9.17a146.52,146.52,0,0,1-204.32,0l-8.57-9.08,0-.05q-2.73-3.15-5.28-6.46A146.2,146.2,0,0,1,147,268.41Z" transform="translate(-144.4 -94.05)"/><path class="cls-2" d="M437.45,240.57a147.56,147.56,0,0,1-2.64,27.84A145.8,145.8,0,0,1,407,330q-2.53,3.3-5.27,6.45h0q-4.12,4.77-8.66,9.17a146.52,146.52,0,0,1-204.32,0q-4.47-4.36-8.57-9.08l0-.05q-2.73-3.15-5.28-6.46a146.53,146.53,0,1,1,262.6-89.43Z" transform="translate(-144.4 -94.05)"/><path class="cls-3" d="M407,330q-2.53,3.3-5.27,6.45h0q-4.12,4.77-8.66,9.17a146.52,146.52,0,0,1-204.32,0q-4.47-4.36-8.57-9.08l0-.05q-2.73-3.15-5.28-6.46Z" transform="translate(-144.4 -94.05)"/><path class="cls-4" d="M420.7,308.66A145.43,145.43,0,0,1,407,330H174.85a146.8,146.8,0,0,1-11.71-17.69l44.35-43.9L257.43,219l36.33-36L330,218.89l50,49.52Z" transform="translate(-144.4 -94.05)"/><polygon class="cls-5" points="149.42 174.26 106.46 131.5 149.36 89.04 192.22 131.46 149.42 174.26"/><rect class="cls-5" x="357.65" y="108.5" width="52.97" height="52.97" transform="translate(63.56 -326.14) rotate(45)"/><path class="cls-1" d="M393.06,345.63,353.91,387.1l-51.43,54.48a15.89,15.89,0,0,1-23.12,0L227.93,387.1l-39.19-41.51a146.52,146.52,0,0,0,204.32,0Z" transform="translate(-144.4 -94.05)"/></svg>