<svg width="22" height="16" viewBox="0 0 22 16" fill="none" xmlns="http://www.w3.org/2000/svg">
<path fill-rule="evenodd" clip-rule="evenodd" d="M21.3334 7.99992C21.3334 7.44763 20.8857 6.99992 20.3334 6.99992H1.66675C1.11446 6.99992 0.666748 7.44763 0.666748 7.99992C0.666748 8.5522 1.11446 8.99992 1.66675 8.99992H20.3334C20.8857 8.99992 21.3334 8.5522 21.3334 7.99992Z" fill="black"/>
<path fill-rule="evenodd" clip-rule="evenodd" d="M21.3334 1.33325C21.3334 0.780967 20.8857 0.333252 20.3334 0.333252H1.66675C1.11446 0.333252 0.666748 0.780967 0.666748 1.33325C0.666748 1.88554 1.11446 2.33325 1.66675 2.33325H20.3334C20.8857 2.33325 21.3334 1.88554 21.3334 1.33325Z" fill="black"/>
<path fill-rule="evenodd" clip-rule="evenodd" d="M21.3334 14.6666C21.3334 14.1143 20.8857 13.6666 20.3334 13.6666H1.66675C1.11446 13.6666 0.666748 14.1143 0.666748 14.6666C0.666748 15.2189 1.11446 15.6666 1.66675 15.6666H20.3334C20.8857 15.6666 21.3334 15.2189 21.3334 14.6666Z" fill="black"/>
</svg>
