<svg width="32" height="32" viewBox="0 0 32 32" fill="none" xmlns="http://www.w3.org/2000/svg">
<path d="M16.0001 8.33329C16.5524 8.33329 17.0001 8.78101 17.0001 9.33329V12H19.6668C20.2191 12 20.6668 12.4477 20.6668 13C20.6668 13.5523 20.2191 14 19.6668 14H17.0001V16.6666C17.0001 17.2189 16.5524 17.6666 16.0001 17.6666C15.4479 17.6666 15.0001 17.2189 15.0001 16.6666V14H12.3334C11.7812 14 11.3334 13.5523 11.3334 13C11.3334 12.4477 11.7812 12 12.3334 12H15.0001V9.33329C15.0001 8.78101 15.4479 8.33329 16.0001 8.33329Z" fill="#373737"/>
<path fill-rule="evenodd" clip-rule="evenodd" d="M15.7122 1.66663C9.96124 1.66663 5.1717 6.07761 4.69927 11.8091C4.44548 14.888 5.39652 17.9452 7.35207 20.3367L13.7428 28.1524C14.9095 29.5793 17.0908 29.5792 18.2574 28.1524L24.6482 20.3367C26.6037 17.9451 27.5547 14.888 27.301 11.8091C26.8285 6.07761 22.039 1.66663 16.2881 1.66663H15.7122ZM6.69251 11.9734C7.07944 7.27926 11.0021 3.66663 15.7122 3.66663H16.2881C20.9981 3.66663 24.9208 7.27926 25.3077 11.9734C25.5189 14.5359 24.7274 17.0803 23.0999 19.0707L16.7091 26.8864C16.3427 27.3346 15.6576 27.3346 15.2911 26.8864L8.90036 19.0707C7.27281 17.0803 6.48129 14.5359 6.69251 11.9734Z" fill="#373737"/>
</svg>
