<svg width="32" height="32" viewBox="0 0 32 32" fill="none" xmlns="http://www.w3.org/2000/svg">
<path d="M25.2732 2.72673C25.6637 3.11726 25.6637 3.75042 25.2732 4.14094L24.5393 4.87488C28.9246 9.98298 28.6979 17.6868 23.859 22.5257C21.575 24.8097 18.6528 26.0661 15.6666 26.2951V28.3333H17.9999C18.5522 28.3333 18.9999 28.781 18.9999 29.3333C18.9999 29.8856 18.5522 30.3333 17.9999 30.3333H11.3333C10.781 30.3333 10.3333 29.8856 10.3333 29.3333C10.3333 28.781 10.781 28.3333 11.3333 28.3333H13.6666V26.295C10.9916 26.0898 8.36784 25.0601 6.20813 23.206L5.4742 23.9399C5.08367 24.3305 4.45051 24.3305 4.05998 23.9399C3.66946 23.5494 3.66946 22.9162 4.05998 22.5257L5.00279 21.5829C5.66337 20.9223 6.68986 20.9561 7.33295 21.5324C9.41558 23.3988 12.0389 24.3325 14.6625 24.3333L14.6666 24.3333L14.6709 24.3333C17.4846 24.3322 20.2981 23.2582 22.4448 21.1115C26.5953 16.961 26.7357 10.318 22.8657 5.9997C22.2893 5.35661 22.2556 4.33012 22.9162 3.66954L23.859 2.72673C24.2495 2.33621 24.8827 2.33621 25.2732 2.72673Z" fill="#373737"/>
<path fill-rule="evenodd" clip-rule="evenodd" d="M5.66659 13.3333C5.66659 8.36277 9.69602 4.33333 14.6666 4.33333C19.6371 4.33333 23.6666 8.36277 23.6666 13.3333C23.6666 18.3039 19.6371 22.3333 14.6666 22.3333C9.69602 22.3333 5.66659 18.3039 5.66659 13.3333ZM14.6666 6.33333C10.8006 6.33333 7.66659 9.46734 7.66659 13.3333C7.66659 13.7798 7.70838 14.2165 7.78827 14.6397C8.33669 14.0416 9.12452 13.6667 9.99992 13.6667C11.6568 13.6667 12.9999 15.0098 12.9999 16.6667C12.9999 17.8965 12.2599 18.9534 11.2009 19.4166C12.2227 20 13.4057 20.3333 14.6666 20.3333C18.0577 20.3333 20.8857 17.9219 21.5292 14.7203C20.6378 16.0925 19.0915 17 17.3333 17C14.5718 17 12.3333 14.7614 12.3333 12C12.3333 9.23858 14.5718 7 17.3333 7C17.4486 7 17.5629 7.0039 17.6763 7.01158C16.7646 6.57675 15.744 6.33333 14.6666 6.33333ZM14.3333 12C14.3333 10.3431 15.6764 9 17.3333 9C18.9901 9 20.3333 10.3431 20.3333 12C20.3333 13.6569 18.9901 15 17.3333 15C15.6764 15 14.3333 13.6569 14.3333 12ZM9.99992 15.6667C9.44763 15.6667 8.99992 16.1144 8.99992 16.6667C8.99992 17.219 9.44763 17.6667 9.99992 17.6667C10.5522 17.6667 10.9999 17.219 10.9999 16.6667C10.9999 16.1144 10.5522 15.6667 9.99992 15.6667Z" fill="#373737"/>
</svg>
