<svg width="32" height="32" viewBox="0 0 32 32" fill="none" xmlns="http://www.w3.org/2000/svg">
<path fill-rule="evenodd" clip-rule="evenodd" d="M21.2322 5.89115C17.7747 5.31151 14.2252 5.31151 10.7677 5.89115C10.1171 6.00023 9.60027 6.50014 9.47057 7.14405C8.29047 13.0027 8.22608 19.0314 9.28078 24.9139L9.49884 26.1301L14.3929 21.4808C15.2935 20.6252 16.7065 20.6252 17.607 21.4808L22.5011 26.1301L22.7192 24.9139C23.7738 19.0314 23.7095 13.0027 22.5294 7.14405C22.3997 6.50014 21.8829 6.00023 21.2322 5.89115ZM10.437 3.91868C14.1135 3.30234 17.8865 3.30234 21.5629 3.91868C23.0285 4.16438 24.196 5.28947 24.49 6.74912C25.7197 12.8543 25.7868 19.1367 24.6878 25.2668L24.3924 26.9139C24.1446 28.2964 22.4592 28.8489 21.4409 27.8816L16.2295 22.9308C16.1009 22.8085 15.899 22.8085 15.7704 22.9308L10.559 27.8816C9.54074 28.8489 7.85535 28.2964 7.60748 26.9139L7.31217 25.2668C6.21308 19.1367 6.28018 12.8543 7.50995 6.74912C7.80397 5.28947 8.97143 4.16438 10.437 3.91868Z" fill="#373737"/>
</svg>
