<svg id="Livello_2" data-name="Livello 2" xmlns="http://www.w3.org/2000/svg" viewBox="0 0 3200 1832.73"><defs><style>.cls-1{fill:#ebf3fa;}.cls-2{fill:#f8fbff;}.cls-3{fill:#e1efff;}.cls-4{fill:#d9e9fc;}.cls-5{fill:#8cb7ea;}.cls-6{fill:#b4d5ef;}.cls-7{fill:#afd295;}.cls-8{fill:#82b378;}.cls-9{fill:#233862;}.cls-10{fill:#e8945b;}.cls-11{fill:#f99f46;}.cls-12{fill:#d86713;opacity:0.4;isolation:isolate;}.cls-13{fill:#c65447;}.cls-14{fill:#ffb27d;}.cls-15{fill:#b84c42;}.cls-16{fill:#aa3e39;}.cls-17{fill:#2c3a64;}.cls-18{fill:#c0783d;}.cls-19{fill:#2b478b;}.cls-20{fill:#466aa5;}.cls-21{fill:#fff;}</style></defs><title>signin_image</title><path class="cls-1" d="M66.06,2001.3l.33,2,49-.19,760.33-2.85,501.72-1.85h15.27l35.32-.13,459-1.71,1057.55-3.93h0l38.82-.13h0l26.93-.11h22.4s1.06-2.06,2.9-6l.56-1.22,2.35-5c4.94-11,12.74-28.83,21.9-52.6q3.52-9.24,7.44-19.67c2-5.55,4.07-11.37,6.16-17.28.7-2,1.39-4,2.12-6.09s1.44-4.25,2.12-6.38c3.85-11.36,7.76-23.54,11.68-36.34h0q5.79-18.9,11.45-39.72c.08-.3.17-.59.26-.91q3.18-11.67,6.2-23.83,4.49-17.85,8.65-36.82,4-18.12,7.58-37.11c4.25-22.42,8-45.75,11.1-69.88a1092,1092,0,0,0,9.17-153.43,934.9,934.9,0,0,0-14.11-152c-23-129.22-76.84-262.26-181.22-384C2565.2,496.42,2235,744.45,2067.52,732c-30-2.24-56.39-16.67-82.32-39.52-47.48-41.89-93.45-112.1-157.56-187.46-96.1-113-233-237.54-476.94-295.67-301.93-72-716.61-51.81-896,164.65-108.54,130.63-131,333.46,9.78,631q12.83,27.15,27.51,55.35,12.33,23.71,21.53,45.29c15.49,36.16,24.67,68,28.53,96.48,9.29,68.23-12.07,116.56-50.28,156.36A323.09,323.09,0,0,1,455,1391c-44.6,34.06-101.11,63.49-157.42,97.87-31.06,19-62.08,39.51-91,63.25-26.9,22.07-52,46.92-73.73,75.76A362.94,362.94,0,0,0,95,1690.1c-.62,1.27-1.18,2.56-1.81,3.84a395.64,395.64,0,0,0-31,102.72c-.31,2-.63,3.91-.92,5.91C52.78,1858.51,53.36,1923.93,66.06,2001.3Z" transform="translate(0 -171.94)"/><path class="cls-2" d="M464.5,1005.06,2160.1,1354l121.64-176.5-1827-803.76C346.18,504.65,323.75,707.48,464.5,1005.06Z" transform="translate(0 -171.94)"/><path class="cls-3" d="M66.39,2003.32l809.39-3,501.72-1.86h15.27l35.33-.12C1750.69,1781.71,1849,1554.59,1849,1554.59c-11.56-3.5-837.12-209.37-1394.06-163.47-44.6,34.06-101.11,63.48-157.42,97.87-31.06,19-62.07,39.5-91,63.26C103.32,1636.77,26.28,1762.06,66.39,2003.32Z" transform="translate(0 -171.94)"/><path class="cls-4" d="M66.39,2003.32l2966.4-11s159.1-318.51,97.5-664.48c-36.54,30-77.95,51.79-104.25,27-33.22-31.28-128.33-122.54-200.33-191.76h0c-49.53-47.62-88.14-84.8-88.14-84.8s-40.46-47.09-67-33.91c-12.24,6.09-24.17,20.68-34.66,34.06l-.11.13c-12.13,15.43-22.3,29.19-29,26.14-6-2.75-50.45-57.69-102.08-118.73C2449.81,921,2386.74,849.2,2353,825.89c0,0-31.34-38.85-65.36,5.69-17.43,22.74-44.24,81-74.19,151.12-69.1,161.57-154.94,386-181,383-37.35-4.26-95.47-104.72-130.76-114.78s-196,341.34-264.53,356.42-199.27-113-305.13-75.34-277.16,248.66-435.95,211C769,1712.81,481.68,1542.8,297.51,1489,155.75,1575.59,15,1694.33,66.39,2003.32Z" transform="translate(0 -171.94)"/><path class="cls-5" d="M62.16,1796.71l5.55-2.29c5.78-2.09,15.21-4.58,24-3,9.28,1.65,24.91,15.48,34.43,24.67-4.43-9.06-8.5-20.43-9.56-32.85-2.47-30.08,7.26-64,22.83-41.62,11.29,16.26,6.21,59.16,2.57,81.5q9,4.27,18.14,9.34c7.43-31.75,18.13-69.57,32.74-106.39,7-17.58,146.05,14,205,55.84,94,66.63,386.18-.49,477.51,17s266.54,99.75,436.77,44.46,730.68-90.42,894.6-125.59c144.3-30.95,664.2-212.78,937.54-238a1092.16,1092.16,0,0,1-9.16,153.45c-26.76,207.44-102.4,358.85-102.4,358.85l-2157,8-385.38-4.4L64.4,1990.92C52.88,1915.43,53.15,1851.45,62.16,1796.71Z" transform="translate(0 -171.94)"/><path class="cls-6" d="M65,1994.4,490.38,1996l385.38,4.4,501.72-1.86h15.27l35.33-.15,459-1.7,1145.74-4.26s75.64-151.43,102.4-358.85c-217.69,22.74-649,72.28-1164.77,150.94-741.09,113-1127.31,187.64-1530,36.73-74.33-27.83-138.62-52.92-195-74.72q-27.49-10.67-52.49-20.22-24.78-9.48-47.26-17.86c-17.06-6.3-34.91-13.67-50.27-19-1.06,2.18-1.4,3-2.12,4.65a395.64,395.64,0,0,0-31,102.72C53.15,1851.45,53.42,1918.74,65,1994.4Z" transform="translate(0 -171.94)"/><path class="cls-7" d="M65,1994.4l810.81,5.95,501.72-1.86h15.27l35.33-.12,459-1.72,1146.35-5.51s1.49-3,5.14-10.94c4.95-11,12.74-28.82,21.91-52.6-122.12-51.65-357.27-222.53-566.22-141.5C2182.86,1906.82,949.15,1991.75,728,1942.76S306,1833.07,225.93,1923C204.23,1947.35,82,1881,65,1994.4Z" transform="translate(0 -171.94)"/><path class="cls-8" d="M3036.23,1985.1c.68-1.43,1.44-3.13,2.35-5,5-10.94,12.74-28.8,21.91-52.58q3.54-9.26,7.38-19.67c2-5.54,4.09-11.38,6.17-17.29.69-2,1.42-4,2.13-6.08s1.44-4.27,2.18-6.39c-52.74-149.52-171.39-447.51-282.26-410.34C2686.72,1504.31,2914.47,1825.46,3036.23,1985.1Z" transform="translate(0 -171.94)"/><path class="cls-8" d="M3107.86,1777.21q4.47-17.85,8.65-36.81c2.64-12.08,5.19-24.44,7.57-37.13-21.84-134-57.45-297.63-100.36-291.55C2972.75,1418.77,3054.72,1644.06,3107.86,1777.21Z" transform="translate(0 -171.94)"/><path class="cls-8" d="M2693.54,1859.19c36.88,23.81,143.43,83.39,234.1,133.43h0l47.87-.18h0l33.18-.13c-77.31-87.1-212.62-214.29-331.31-212.88-11.37.07-21.06,10-23,23.5C2652.57,1817.21,2659.21,1837,2693.54,1859.19Z" transform="translate(0 -171.94)"/><path class="cls-2" d="M2213.48,982.61c16.44,6.41,39.29,9.83,42.13-16.86,4.15-38.93,96.51,36.42,144.25,52.73s20.69-50.23,21.75-69c.64-11.51,47.06,14.51,83,36.49C2449.76,921,2386.7,849.2,2353,825.9c0,0-31.34-38.86-65.36,5.7C2270.21,854.28,2243.4,912.54,2213.48,982.61Z" transform="translate(0 -171.94)"/><path class="cls-2" d="M2635.9,1078.41c1.06-1.13,9.95-10,26.16.13,17.29,10.73,40.13,16.59,50.52,12.78s113.09,71.77,113.09,71.77h0c-49.52-47.62-88.14-84.8-88.14-84.8s-40.45-47.1-67-33.9C2658.32,1050.44,2646.39,1065,2635.9,1078.41Z" transform="translate(0 -171.94)"/><path class="cls-2" d="M1101.43,339.44l883.73,352.78c-47.48-41.89-93.45-112.1-157.56-187.46Z" transform="translate(0 -171.94)"/><path class="cls-2" d="M1128.7,457.15c21.46,0,38.87,21,38.87,47s-17.41,47-38.87,47-38.83-21-38.85-46.94,17.36-47,38.82-47.07Z" transform="translate(0 -171.94)"/><path class="cls-9" d="M1982.52,557.36s-55-35.08-133.91-42.09c-42.35-3.78-81.4,27.78-94.71,76.64-.78,2.84-1.52,5.75-2.18,8.75-18.52,80.64-8.39,324.8,53.87,388.48S1982.52,1026,1982.52,1026Z" transform="translate(0 -171.94)"/><polygon class="cls-8" points="1885.8 276.89 2019.88 304.31 2009.65 360.07 1886.76 395.27 1885.8 276.89"/><path class="cls-10" d="M2369.85,800.09c-6-5.22-11.52,13.67-19,12.91-1.76-.19,7.55-11.23,9.76-15.1s1.75-6,.13-7.1-23,13-27.35,18.72c-2.68,3.51-8.5,16.47-12.54,25.94,0,0,0-.09-.07-.09s-121.64,11-146.18,8.34c-17.81-1.69-26.55-154-28-153.68-23.2,4.62-68.27,16.1-96.1,38.92a8.42,8.42,0,0,1-3.36,2c10.62,47.11,26.47,102.45,49.5,153.94,15,33.64,45,53.52,76.45,50.57,42.48-4,104.83-17.23,157.94-58.1,0,0,27.51-16.92,40.29-30.56C2388.8,828.3,2375.89,805.32,2369.85,800.09Z" transform="translate(0 -171.94)"/><path class="cls-11" d="M2155.91,1102.65s-8.22,124.66-16.07,245.91c-10.69,164.8-51.33,575.39-51.33,575.39s8.62,16.37-33.21,5.68c0,0-51.25-139.89-61.91-300.72l-.49-8c-9.91-163.78-25.31-508.64-25.31-508.64Z" transform="translate(0 -171.94)"/><path class="cls-12" d="M2156.66,1091.48s-9,135.79-16.82,257.1l-146.45,280.36-.49-7.94c-9.91-163.78-25.31-508.65-25.31-508.65Z" transform="translate(0 -171.94)"/><path class="cls-11" d="M2148,1098.39l-341.49,786.53s-31.79,17.25-35.91,2.27c0,0,30.3-360.34,83.4-441.16,30-45.69,65.2-182.75,66.9-230.68S1932,1066.09,1932,1066.09Z" transform="translate(0 -171.94)"/><path class="cls-9" d="M1864.59,1995.62s-49.57.88-63.91-16.14c-1.7-2-7.16-22.11-7.21-22.32-.45-1.63-3-9-13.19-13.13-6.73-2.74-12.32-2.65-18.79-5.69a166.54,166.54,0,0,1-18.44-10.84c-15.35-10.85-11.86-16.58-11.86-16.58s3.39-3.65,7.84-9.13c1.17-1.42,2.49-3.09,3.8-4.78,6.65-8.51,14.09-19.33,15.93-27a26.81,26.81,0,0,1,7.53-13.56,19.64,19.64,0,0,1,7-4.47s5.41,26.3,16.12,23c20.72-6.35,24.59-5.68,25.3-5.21l.17.14s16.93,39.71,21.65,53.9c8.38,25.25,19.12,34.79,25.84,43.07a23.17,23.17,0,0,1,3.83,6.8C1869.85,1983.24,1867.29,1993.81,1864.59,1995.62Z" transform="translate(0 -171.94)"/><path class="cls-13" d="M1864.59,1995.62s-49.57.88-63.91-16.14c-1.7-2-7.16-22.11-7.21-22.32-.45-1.63-3-9-13.19-13.13-6.73-2.74-12.32-2.65-18.79-5.69a166.54,166.54,0,0,1-18.44-10.84c-15.35-10.85-11.86-16.58-11.86-16.58s3.39-3.65,7.84-9.13c1.17-1.42,2.49-3.09,3.8-4.78,1.6,7.63,6.08,21.23,17.93,26.77,16.93,7.94,35,21.59,40.42,32.57s8.77,20.85,19.11,25,37.28,5.32,39.16,4.18c1.51-.9,3-9,6.86-11.91C1869.85,1983.24,1867.29,1993.81,1864.59,1995.62Z" transform="translate(0 -171.94)"/><path class="cls-9" d="M2049.3,1995.74h20.48c6.88-1.3,11.94-3.65,19-4.86,10.69-1.71,15.61,3.64,16.58,4.86l.2.26h87.07c2.2-3.8.1-12.56-2-19a13.72,13.72,0,0,0-8.15-9c-9.24-3.23-27.44-6.08-44.1-24.33-9.4-10.25-45.28-37.71-45.28-37.71H2093c-.79,0-4.55,1.43-20.88,18.1-8.49,8.52-22.83-12.16-22.83-12.16a25.35,25.35,0,0,0-4.69,7.75,31.12,31.12,0,0,0-1.87,16.18c1.3,9.47-2.89,27.11-6.23,39-2,7.24-3.74,12.35-3.74,12.35S2031.67,1993.07,2049.3,1995.74Z" transform="translate(0 -171.94)"/><path class="cls-13" d="M2049.33,1996.09h20.41c6.87-1.3,12-4.06,19-5.17,10.69-1.7,15.61,3.65,16.58,4.87l.2.26h87.07c2.2-3.8.1-12.56-2-19-2.65-2.84-3.39,12.35-4.85,14.77s-71,.9-75-2.64-16.08-9.73-32.92-4.86c-14.61,4.25-36.1-6.61-41.49-9.5-2,7.29-3.74,12.36-3.74,12.36S2031.71,1993.43,2049.33,1996.09Z" transform="translate(0 -171.94)"/><path class="cls-14" d="M1969.3,543.3s81.56,48.57,128.71,30.57a121.26,121.26,0,0,0-31.86-31.41c1.17-8.3,2.12-15.82,2.8-22.64q2.22-19.1,2.72-38.38l-49.91-48.74-11.22-10.95a206.86,206.86,0,0,1-1.52,32.16c-.1.79-.19,1.57-.3,2.34C2000.6,514.93,1969.3,543.3,1969.3,543.3Z" transform="translate(0 -171.94)"/><path class="cls-15" d="M1922.75,1060c-.25,6.28,10.46,13.19,15.1,15.63,20.63,11.2,40.41,20.36,60.71,26.9a226.33,226.33,0,0,0,43.72,9.57c43.65,5.44,95.27-6.47,113-6.18a6.94,6.94,0,0,0,5-2.29c1.18-1.21,2.13-65.68,1.18-147.1,0-3.13,0-6.57-.23-9.73v-1.15c-.23-31.71-1.18-65.13-2.36-98.25-2.59-73.13-7.3-143.68-15.33-182.82-9.4-46-31.16-76.25-51-98.53l-14.11-17a3.37,3.37,0,0,0-3.36-1.22c-15.77,3.5-33,3.22-49.59-6.65-18.64-11.13-39-23.12-42.29-20.28-38.77,35-58,138.39-57.57,256,0,3.71,0,7.45.09,11.19.17,12.17.54,24.42,1.18,36.75,4.24,86.72-.11,161.92-2.58,205.66C1923.47,1043.14,1922.91,1053.11,1922.75,1060Z" transform="translate(0 -171.94)"/><path class="cls-16" d="M1922.75,1060c-.25,6.28,10.46,13.19,15.1,15.63,20.63,11.2,40.41,20.36,60.71,26.9,56.39-220.18-11.11-433.62-11.11-433.62l-61.8,119.21q.25,18.25,1.17,36.75c4.24,86.72-.11,161.92-2.57,205.65C1923.47,1043.14,1922.91,1053.11,1922.75,1060Z" transform="translate(0 -171.94)"/><path class="cls-15" d="M2009.38,703.3c-20.18-14.48-60.73-40.75-94.22-44.9-6-.74-10.35-7.23-9.74-14.48a14.85,14.85,0,0,1,.86-3.92c10.62-29.26,40.49-90.51,76.9-119,3.42-2.67,6-.35,9.56,2.07,13.44,9.13,42.38,36.11,44.16,67.92,1.58,28.29-6.43,77.37-11.28,103.76-1.06,6.81-6.73,11.34-12.67,10.14l-.34-.08A9.78,9.78,0,0,1,2009.38,703.3Z" transform="translate(0 -171.94)"/><path class="cls-10" d="M2008.26,455.36s.13.3.41.89c3.18,6.83,24.67,50.93,60.3,63.57q2.22-19.1,2.72-38.38l-49.91-48.74A172.15,172.15,0,0,0,2009,453.91Z" transform="translate(0 -171.94)"/><path class="cls-14" d="M2086.1,480s-77.86,15.64-85.16-43.17-22.3-96.42,27.12-108.9,61.88,8.21,68.26,27.13S2106.23,474.51,2086.1,480Z" transform="translate(0 -171.94)"/><path class="cls-17" d="M2108.4,321.05c-16.18-9-94.89-54.23-128.62-13-.4-4.59-.57-9.21-.51-13.82-2.45,5.38-3.52,13.26-4,18.89-3-4.38-8.58-5.12-8.58-5.12a14.7,14.7,0,0,1,6.37,10.34c-33.43,60.16,17.34,121.39,24.32,130.93,7.2,9.86,11.33,7,11.33,7s12.74-20.82,6.53-34.5c0,0-10.34-12.63-4.39-20.59s9.4,4.17,14.1,3.8,13.16-17,13.81-32.24,45.82,8,64,.78S2136.86,336.9,2108.4,321.05Z" transform="translate(0 -171.94)"/><path class="cls-9" d="M1923.94,841.21l-2.35-18c36.11-7.1,65.31-28.08,86.8-62.38,16.23-25.89,27.61-59.8,31.36-93.05,7.15-64.47-6.86-101.07-42.85-112.09-32.22-10-69.47,20.59-69.83,20.91l-8.5-15c1.74-1.42,43.16-35.53,82.07-23.56,30.32,9.28,64.31,39.8,54,132.19-2.35,21.32-10,62.87-34.26,101.62C1996.4,810,1963.93,833.3,1923.94,841.21Z" transform="translate(0 -171.94)"/><ellipse class="cls-7" cx="1874.94" cy="336.22" rx="47.8" ry="60.94"/><path class="cls-8" d="M1841,509.77c0-29.28,19.61-53,43.81-53h0a22.57,22.57,0,0,1,3.18.14c-23.36-7.62-47.4,9.12-53.7,37.39s7.53,57.4,30.89,65a37.7,37.7,0,0,0,8.29,1.7C1854.31,554.73,1841,533.75,1841,509.77Z" transform="translate(0 -171.94)"/><rect class="cls-18" x="2349.33" y="599.32" width="12.58" height="1050.54"/><path class="cls-9" d="M2352,759.94h7.35c4.56.14,8.16,4.49,8,9.72h0V885.5c.12,5.22-3.47,9.58-8,9.73H2352c-4.56-.15-8.15-4.51-8-9.73V769.65C2343.8,764.43,2347.39,760.08,2352,759.94Z" transform="translate(0 -171.94)"/><path class="cls-9" d="M2368,1828.43h-24.73c-3.52-.08-6.32-3.41-6.25-7.44v-.08h0c-.12-4,2.64-7.4,6.16-7.54H2368c3.52.08,6.31,3.41,6.24,7.44v.1h0c.11,4-2.65,7.4-6.16,7.53H2368Z" transform="translate(0 -171.94)"/><path class="cls-18" d="M2355.66,1857.61h0a4.74,4.74,0,0,1-4.31-4.73l-2-24.45h12.56l-1.92,24.44A4.77,4.77,0,0,1,2355.66,1857.61Z" transform="translate(0 -171.94)"/><polygon class="cls-18" points="2133.53 741.16 2143.46 750.5 1610.26 1579.57 1600.33 1570.23 2133.53 741.16"/><path class="cls-9" d="M2078.62,1018.22l-5.79-5.46a11.12,11.12,0,0,1-1.41-13.63h0l58.74-91.42c2.47-4,7.3-5,10.79-2.14l.48.42h0l5.79,5.44a11.16,11.16,0,0,1,1.48,13.71h0L2090,1016.57c-2.47,4-7.3,4.95-10.79,2.12a4.81,4.81,0,0,1-.48-.42Z" transform="translate(0 -171.94)"/><path class="cls-9" d="M1611.89,1761.23l-19.51-18.38a8.62,8.62,0,0,1-1.07-10.57h0a5.54,5.54,0,0,1,8.38-1.64c.12.09.24.2.35.3h0l19.52,18.38a8.67,8.67,0,0,1,1.06,10.58h0a5.55,5.55,0,0,1-8.39,1.63C1612.11,1761.43,1612,1761.34,1611.89,1761.23Z" transform="translate(0 -171.94)"/><path class="cls-18" d="M1587.36,1775.09h0a6,6,0,0,1-1.06-6.93l10.82-20.79,9.93,9.34-13.92,17.84A3.82,3.82,0,0,1,1587.36,1775.09Z" transform="translate(0 -171.94)"/><path class="cls-14" d="M2132.57,964.76c-1.38-6.6-17-4.1-26.74-5.36-2.55-.45-4.32-3.16-4-6.09a6.29,6.29,0,0,1,.87-2.67l4.79-7.69c-7.16-1.75-15.47-3.17-18.87-2.64-3.92.6-15.27,6-23.43,10.05v-.12s-98.83-86.48-116.3-107.56c-12.74-15.18,61.67-138.5,60.45-139.31-20.18-14.6-60.8-40.87-94.24-45.09a7.53,7.53,0,0,1-3.66-1.06c-17,44.33-34.3,99-44.09,156.36-6.47,37.42,5.9,75.92,31.54,98.24,34.58,30,89.35,68.55,151.74,78.69,0,0,33.52,15.63,50.51,15.17C2124.59,1005.06,2134.41,973.51,2132.57,964.76Z" transform="translate(0 -171.94)"/><path class="cls-10" d="M2338.69,804.48s15.78-15.63,22,2.52c4.31,12.69-1.77,22.43-5.87,27.15a3.76,3.76,0,0,1-5.83.19c-.08-.08-.15-.17-.23-.26a5.56,5.56,0,0,1-.82-1.47c-.86-2.3-1.29-5.69-.32-10.39l-14.46,37.71Z" transform="translate(0 -171.94)"/><path class="cls-10" d="M2367.32,799.2s-9.46-.52-10.4,18.93-2.78,47.16,10.83,32.32S2367.32,799.2,2367.32,799.2Z" transform="translate(0 -171.94)"/><polygon class="cls-18" points="1650.32 951.7 1661.21 959.33 1288.88 1736.53 1277.99 1728.89 1650.32 951.7"/><path class="cls-11" d="M1199.68,1173.4c1.69,5,9,9.37,19.64,12.56,23.75,7.1,63.78,8.09,93-5,31.31-14,54-214.26,63.71-316.9,3.36-35.78,5.14-59.69,5.14-59.69s-18-34.12-87.6-22.75-76.63,39.81-82.83,90.85S1194.21,1157.3,1199.68,1173.4Z" transform="translate(0 -171.94)"/><polygon class="cls-16" points="1263.35 542.44 1397.42 569.86 1387.19 625.63 1264.3 660.84 1263.35 542.44"/><ellipse class="cls-15" cx="1252.48" cy="601.78" rx="47.8" ry="60.94"/><path class="cls-16" d="M1218.54,775.31c0-29.27,19.61-53,43.8-53h0a22.72,22.72,0,0,1,3.19.15c-23.36-7.62-47.39,9.12-53.69,37.39s7.54,57.36,30.9,65a36.74,36.74,0,0,0,8.26,1.69C1231.83,820.28,1218.54,799.29,1218.54,775.31Z" transform="translate(0 -171.94)"/><path class="cls-10" d="M1649.08,1177.63c-.59-9.73-12.23-18-19.62-20.57-5.87-2-13.6-12-16.45-15.9-26.39-40.45-65.61-123.13-75.4-137.46-3.51-5.22-14.47-31.9-28.61-66.26-9.55-23.11-20.49-49.67-31.65-75.52-17,7.48-37.59,17.71-55.31,30,10.62,20.68,24.86,48.18,37.38,73,11.53,22.75,21.62,43.16,26.23,53.53,14.11,31.77,110.71,138.82,110.71,138.82l5.37,6.54a29.49,29.49,0,0,1,2.85,4.17c3,5.41,8.61,16.33,17.24,25.82,5.24,5.75,8.72,9.46,18.47,8C1652.6,1199.82,1649.66,1187.32,1649.08,1177.63Z" transform="translate(0 -171.94)"/><path class="cls-9" d="M1474,837.56s48.16,116.39,55.13,134.67c0,0-25.49,61.32-42.11,60.94S1474,837.56,1474,837.56Z" transform="translate(0 -171.94)"/><path class="cls-9" d="M1354.61,577.24c-.74-3.18-10.24-38.93-56.28-27,0,0,23.06-3.51,29.37,7.24,0,0-18.26-10.12-29.73-1.67s-13.32,37-11.61,45.66S1300.7,636,1309.08,636a21.41,21.41,0,0,0,9.55-2.83q-2.06,7.41-3.39,15c-8.88,50.58,18.91,89,33.29,79.6,9.22-6.08,16.19,13.38,16.19,13.38l76.46-122.71S1387.92,540.91,1354.61,577.24Z" transform="translate(0 -171.94)"/><path class="cls-14" d="M1474.8,1183.53c-34.71-134.27,3.35-163.47-.28-230.65s-46.6-139.45-46.6-139.45-2.19-.26-5.88-.66c-2.88-1.85-3.65-16.45-3.61-31.88,0-18.47,1.17-38.13,1.17-38.13l-51.55-12.35-3.07-.73c.11,43.43-9.33,71.94-16.18,78.58-6.43.88-33.9,5.08-50.83,13.63-6.37,3.23-11.26,7.12-12.92,11.59-14.17,37.71-28.3,132.75-38.23,200.57-5.54,37.8-17.74,85.57-8.66,95.72l53.46-24.52c2-11.5,5.45-35.28,11.18-61.13.87-3.89-.26-8.61.63-12.6,10.14,33.23,15.28,48.66,15,63-.39,20.42-11.85,38.8-35.78,103.76C1269.44,1234.19,1510.25,1320.67,1474.8,1183.53Z" transform="translate(0 -171.94)"/><path class="cls-10" d="M1419.6,742.76s-1.17,19.64-1.17,38.13c-28.85-1-44.1-32.84-50.35-50.48Z" transform="translate(0 -171.94)"/><path class="cls-9" d="M1362.71,723.62s-15.12-28.91-18.79-53.63c-2.59-17.65,4.83-83.07,59.17-73.64a66.54,66.54,0,0,1,30.54,14c11.74,9.63,28.82,30.41,9.79,87.58l-5,19.2Z" transform="translate(0 -171.94)"/><path class="cls-14" d="M1429.23,760.29s-68.26,1.42-68.31-50.1-8.89-85.94,34.69-89,52,16.58,55.55,33.75S1447,758.66,1429.23,760.29Z" transform="translate(0 -171.94)"/><path class="cls-15" d="M1524.5,1959.44l-21.91,6.52a876.74,876.74,0,0,1-63.09-135c-18.15-49.35-34-105.69-37.17-158-1.43-23.7-.28-46.58,4.38-67.65,0,0-6.12-49.75-14.5-116.28-9.29-73.91-21.35-168.36-30.79-237.82l5.71-2,122.24-43.92s23.91,113.35,12.92,290.94c-2.24,36.5-6,75.57-11.68,117-9.71,70.8-5.72,142,2.35,201.21C1504.62,1899.13,1524.5,1959.44,1524.5,1959.44Z" transform="translate(0 -171.94)"/><path class="cls-16" d="M1502.38,1496.19l-95.82,214.1c-2.65-19.57-11.1-54.49.19-104.92,0,0-6.11-49.75-14.49-116.28-9.29-73.91-21.36-168.36-30.8-237.82l5.72-2,122.23-43.92S1513.32,1318.6,1502.38,1496.19Z" transform="translate(0 -171.94)"/><path class="cls-15" d="M1395.08,1617.22c-4.33,9.85-47.28,72.34-90.45,141.52-3.7,5.92-7.54,12.31-11.45,19-25.43,43.34-54.71,99.85-72.21,127.35-15.93,25-30.19-6.3-22.17-28.63,12.66-35.28,23.36-96.87,35.65-142.16q3.78-14.41,8.76-28.33c13.2-35.7,38.92-74.85,70.18-113.57,5.43-6.72-45.34-167.08-42-290.73,1.33-49,7-92.11,19.87-118.37l128.49,7.7S1437.33,1521.2,1395.08,1617.22Z" transform="translate(0 -171.94)"/><path class="cls-9" d="M1449.12,626.36c-10.62-15.45-18.5-12.1-23-7.46-36.6-24.57-82.62,2-82.62,2q-4.15,33.83-5.31,68s12.44,9.29,41.11.38c8.75-2.74,16.58-10.25,23.23-19.37a190.53,190.53,0,0,1-27.39,40.45c34.26-19.17,48-76.77,49.34-82.94,4.17,4.54,12.38,14.38,14.86,24,3.41,13.1,4.94,40.09,11.45,39.16C1450.88,690.6,1464.91,649.55,1449.12,626.36Z" transform="translate(0 -171.94)"/><path class="cls-19" d="M1266.54,1245.19a44.64,44.64,0,0,0,.79,12.43c2.73,10.4,12.12,15.13,34.8,12.3,13.87-1.74,20-29.84,22.81-53.85q12.49,51.47,35,57.62c22,5.93,133,22.25,140.17-41.58,8-70.19-15.93-194.47-17.25-261.53a402,402,0,0,0,4-62c-.94-47.75-12.5-74.5-21.41-85.29-2.53-2.35-5-3.81-15.16-5.9-5.19-1.07-12.35-2.31-22.51-3.93a37.71,37.71,0,0,0-4.24-.5c1.86,4.08,22.05,40.05,20.11,51.9-2.06,12.37-79.7,10.59-85.86,3.77s-22.19-58.28-22.19-58.28-31.55,4.18-47,17.77l.16.23a15,15,0,0,0-4.06,5.17c-16.44,37.94-32.92,133.7-44.48,202,28,18.69,52.53,13.13,60.14,10.66C1290.55,1124.9,1268,1209.35,1266.54,1245.19Z" transform="translate(0 -171.94)"/><path class="cls-11" d="M1427.91,813.43l.16.28c3,5.79,50.35,97.32,54.9,156.93a402,402,0,0,0,4-62c-6.08-22.51-33.36-72.86-47.59-93.23C1438.38,813.86,1427.91,813.43,1427.91,813.43Z" transform="translate(0 -171.94)"/><path class="cls-14" d="M1439.5,1831a874,874,0,0,0,63.09,135l21.91-6.52s-19.88-60.31-31.41-145C1486.22,1820.56,1471.35,1828.49,1439.5,1831Z" transform="translate(0 -171.94)"/><path class="cls-9" d="M1485.27,1995.91h15c5-1,8.74-2.71,13.89-3.53,7.83-1.21,11.43,2.66,12.15,3.53l.14.18h63.72c1.61-2.83.07-9.18-1.45-13.91a9.94,9.94,0,0,0-6-6.6c-6.76-2.43-20.1-4.47-32.3-17.85-6.86-7.51-33.15-27.6-33.15-27.6h-.14c-.57,0-3.32,1-15.27,13.26-6.19,6.3-16.72-8.91-16.72-8.91a18.65,18.65,0,0,0-3.47,5.68,22.82,22.82,0,0,0-1.36,11.84c1,7-2.12,19.9-4.56,28.62-1.5,5.28-2.74,9-2.74,9S1472.36,1993.9,1485.27,1995.91Z" transform="translate(0 -171.94)"/><path class="cls-20" d="M1485.27,1995.91h15c5-1,8.74-2.71,13.89-3.53,7.83-1.21,11.43,2.66,12.15,3.53l.14.18h63.72c1.61-2.83.07-9.18-1.45-13.91-1.93-2.07-2.47,9.06-3.52,10.82s-52,.65-55-1.93-11.74-7.12-24-3.58c-10.71,3.11-26.55-4.86-30.39-6.93-1.5,5.29-2.74,9-2.74,9S1472.36,1993.9,1485.27,1995.91Z" transform="translate(0 -171.94)"/><path class="cls-9" d="M1266.54,1245.19c15.27-6.16,34.8-22.54,58.28-59.25,62.16-97.23,5.3-211.51-2.35-213.64s-22,73.91-22,73.91c-1.49,16.48-5,33.85-7.78,50.76-.28,1.69-.65,3.24-.88,4.86-2.52,19.63-.88,38.38-4.52,56.59-.08.38-6.64,1.64-6.72,2C1273.43,1196.33,1267.31,1227.21,1266.54,1245.19Z" transform="translate(0 -171.94)"/><path class="cls-21" d="M1409.61,729.9s1.31,6.34,14.36,5.17c0,0,10.94-1,10.62-8C1434.52,727.12,1423.8,722.31,1409.61,729.9Z" transform="translate(0 -171.94)"/><path class="cls-14" d="M1293.2,1777.72c-25.48,43.34-54.71,99.84-72.21,127.35-15.93,25-30.19-6.32-22.16-28.65,12.65-35.28,23.36-96.85,35.64-142.14C1242.71,1749.42,1259.52,1768.93,1293.2,1777.72Z" transform="translate(0 -171.94)"/><path class="cls-9" d="M1255,1996.07s-37.39-5.68-46.73-20.3c-1.06-1.72-3.52-17.56-3.52-17.73-.18-1.21-1.45-7.1-8.79-11.56-4.83-2.85-9-3.56-13.65-6.7a132.3,132.3,0,0,1-12.91-10.51c-10.62-10.12-7.44-14-7.44-14s2.87-2.44,6.68-5.89c1.06-1,2.13-2,3.28-3.1,5.76-5.6,12.27-12.8,14.36-18.34a19.1,19.1,0,0,1,6.85-9.24,13.86,13.86,0,0,1,5.69-2.43s1.79,20.48,10.14,19.39c16.15-2.14,19-1.1,19.51-.71l.11.12s9.29,32.08,11.61,43.34c4.13,20.09,11.41,28.65,15.77,35.76a18.69,18.69,0,0,1,2.3,5.6C1260.08,1987.42,1257.22,1995.07,1255,1996.07Z" transform="translate(0 -171.94)"/><path class="cls-20" d="M1255,1996.07s-37.39-5.68-46.73-20.3c-1.06-1.72-3.52-17.56-3.52-17.73-.18-1.21-1.45-7.1-8.79-11.56-4.83-2.85-9-3.56-13.65-6.7a132.3,132.3,0,0,1-12.91-10.51c-10.62-10.12-7.44-14-7.44-14s2.87-2.44,6.68-5.89c1.06-1,2.13-2,3.28-3.1.56,5.94,2.74,16.75,11.19,22.45,12,8.14,24.55,20.68,27.6,29.69s4.79,16.82,12.22,21.33,27.61,8.73,29.13,8.11c1.16-.5,3-6.4,6.2-8.09C1260.08,1987.42,1257.22,1995.07,1255,1996.07Z" transform="translate(0 -171.94)"/><path class="cls-11" d="M1313,815l-22.72,10.38c16.45,20.11,44,60.83,55.7,120,17.2,87.05-47.4,115.3-47.4,115.3l-5.67,35.17-.15,1.21s80.58-23.42,75.9-132.72C1366.24,908.49,1346.5,855.52,1313,815Z" transform="translate(0 -171.94)"/><path class="cls-9" d="M1607.6,1236.89l-6.37-4.45c-3.87-2.86-5.14-8.68-2.91-13.29h0l48-100.22c2-4.38,6.69-6.1,10.52-3.83.16.09.31.19.46.29h0l6.37,4.47c3.89,2.85,5.17,8.67,2.92,13.29h0l-48,100.29c-2,4.37-6.74,6-10.56,3.73C1607.89,1237.09,1607.74,1237,1607.6,1236.89Z" transform="translate(0 -171.94)"/><path class="cls-9" d="M1291.45,1917.91l-21.4-15a8.48,8.48,0,0,1-2.27-10.32h0c1.55-3.4,5.21-4.71,8.18-2.94l.32.21h0l21.39,15a8.45,8.45,0,0,1,2.28,10.29h0c-1.55,3.39-5.21,4.71-8.17,2.93Z" transform="translate(0 -171.94)"/><path class="cls-18" d="M1268.74,1935.62h0a5.82,5.82,0,0,1-1.78-6.7l8.38-22.37,10.89,7.63-11.75,19.9A3.88,3.88,0,0,1,1268.74,1935.62Z" transform="translate(0 -171.94)"/><polygon class="cls-18" points="1444.37 1022.44 1451.7 1034.81 848.49 1558.52 841.17 1546.14 1444.37 1022.44"/><path class="cls-9" d="M1366.87,1276.42l-4.25-7.2a11.13,11.13,0,0,1,1.84-13.58l77.78-67.51c3.41-3,8.28-2.23,10.88,1.68.12.17.23.36.34.54l4.24,7.2a11.14,11.14,0,0,1-1.84,13.58l-77.79,67.52c-3.41,3-8.28,2.21-10.88-1.7C1367.08,1276.78,1367,1276.6,1366.87,1276.42Z" transform="translate(0 -171.94)"/><path class="cls-9" d="M847.47,1740.25l-14.42-24.33a8.61,8.61,0,0,1,1.43-10.52h0a5.54,5.54,0,0,1,8.45,1.31c.09.14.17.27.25.42h0l14.38,24.32a8.59,8.59,0,0,1-1.42,10.51h0a5.52,5.52,0,0,1-8.42-1.31C847.63,1740.52,847.55,1740.38,847.47,1740.25Z" transform="translate(0 -171.94)"/><path class="cls-18" d="M820.7,1745.15h0a6.07,6.07,0,0,1,.66-7l15.27-16.24,7.34,12.36-17.58,12.28A3.87,3.87,0,0,1,820.7,1745.15Z" transform="translate(0 -171.94)"/><path class="cls-14" d="M1266.25,1076.13l-28,53.64c48.57,40.57,103.69,62.78,139.4,90.88,3.45,3,13.81,9,16,15.95,2.76,8.66,8.49,19.76,16.58,19.56s20.17-7,21.71-16.7c.69-4.26-2.46-2.66-9.56-11-5.87-6.94-8.3-11.37-8.6-15.64-2.75-2.56-12.74-8.69-12.74-8.69-6.24-4.43-10.28-7.42-10.28-7.42h0S1297.78,1109.23,1266.25,1076.13Z" transform="translate(0 -171.94)"/><path class="cls-10" d="M1634.16,1176.7c.24-2.54.55-5.19,1-7.62,1.44-8.13-11-15.33-11-15.33l-7,12.08s11.4,8.32,11.17,15.36a7.42,7.42,0,0,0,1.24,4.87c-2.46,7.1-3.32,15,4.19,15.81,10.18,1.06,14.09-29.36,14.09-29.36S1638.86,1171.81,1634.16,1176.7Z" transform="translate(0 -171.94)"/><path class="cls-14" d="M1291.83,1101.9a309.46,309.46,0,0,0,8.66-55.67S1286.35,1084.17,1291.83,1101.9Z" transform="translate(0 -171.94)"/><path class="cls-21" d="M3.63,1994.4H3196.37a4.07,4.07,0,0,1,3.63,4.38h0v1.49a4.06,4.06,0,0,1-3.62,4.39H3.63A4.07,4.07,0,0,1,0,2000.29H0v-1.49a4.07,4.07,0,0,1,3.62-4.39Z" transform="translate(0 -171.94)"/></svg>