<svg id="_лой_1" data-name=" лой 1" xmlns="http://www.w3.org/2000/svg" viewBox="0 0 3200 2004.67"><defs><style>.cls-1{fill:none;}.cls-2{fill:#ebf3fa;}.cls-3,.cls-4,.cls-5{fill:#80b4ff;}.cls-3{opacity:0.2;}.cls-3,.cls-4,.cls-8{isolation:isolate;}.cls-4{opacity:0.4;}.cls-6{fill:#afcdfb;}.cls-7{fill:#bfe2a8;}.cls-12,.cls-8{fill:#f8fcff;}.cls-8{opacity:0.8;}.cls-9{fill:#daed8e;}.cls-10{fill:#a36f4b;}.cls-11{fill:#d8a987;}.cls-13{fill:#509b67;}.cls-14{fill:#82b378;}.cls-15{fill:#fff;}.cls-16{fill:#f99746;}.cls-17{fill:#af5919;}.cls-18{fill:#163560;}.cls-19{fill:#1c468a;}.cls-20{fill:#ed7d2b;}.cls-21{fill:#ffb27d;}.cls-22{fill:#fca56b;}.cls-23{fill:#29589b;}.cls-24{fill:#edc5a2;}.cls-25{fill:#f9ddbf;}</style></defs><title>signup_image</title><rect class="cls-1" y="1.12" width="3200" height="2000"/><path class="cls-2" d="M3190.17,1797c-17.67,119.09-113.27,206.67-225.41,206.52l-645.88-1.09-565.95-1-17,0-121.19-.14-15.64,0-115.58-.14-19.77,0-161.11-.27-28.41,0-131.39-.23-35.73,0-226.46-.39-39.56,0-174.93-.3-37.3,0-269.74-.67c-86.77-.12-166.43-51.57-207.29-133.89-17.43-35.18-36.22-76.39-54.42-122.42C68.33,1669.11,40.65,1583,22.54,1489.25c-14.5-75-23-154.79-21.4-237.08Q1.55,1230,3,1207.61q1.28-19.42,3.33-39a904.06,904.06,0,0,1,22.48-126.68A865.41,865.41,0,0,1,83.69,887.65c28.39-60.89,65.15-121.23,111.79-180.09a1036.55,1036.55,0,0,1,84.39-93.87C838.73,62.27,1380,295.17,1457.29,295.26c373,.44,283.09-252.81,696.16-291C3027-76.65,2896,788.38,2896,788.41s-13,47.58-16.91,65.28q-8.1,35.68-12.56,67.68c-.23,1.62-.46,3.25-.67,4.83-.84,6.2-1.58,12.27-2.18,18.27-4.54,42.67-4.34,80.54-.3,114.64,7.52,63.74,28.33,114.16,56.13,157.77,18.55,29.12,40.22,55.17,63.13,80.11q9.63,10.48,19.53,20.78,12.75,13.29,25.71,26.47c11.48,11.75,23,23.54,34.25,35.59q3.63,3.84,7.23,7.77,6.2,6.7,12.23,13.55a576.73,576.73,0,0,1,46.79,59.57c3.15,4.61,6.18,9.29,9.16,14q5.25,8.45,10.14,17.18a383.67,383.67,0,0,1,27.15,60.11C3197.05,1615.52,3205.52,1693.78,3190.17,1797Z" transform="translate(0 1.12)"/><path class="cls-3" d="M1620.44,1478.21l-233.8,149.14L424.94,1471,1.08,1252.2q.42-22.15,1.86-44.57,1.27-19.43,3.34-39A903.78,903.78,0,0,1,28.75,1042,865.91,865.91,0,0,1,83.63,887.68s285.89-127.24,342.11-88.89,216.71,272,289.06,260.52,126.06-114.06,222.35,33.92S1087,1294,1175.44,1237.48s134.13-137.12,209.09-88S1620.44,1478.21,1620.44,1478.21Z" transform="translate(0 1.12)"/><path class="cls-4" d="M2982.58,1296.94c-212.25,76.36-886.35,315.53-1045.22,329.84-189.25,17.06-215.61-151.33-215.61-151.33s212-328.21,238.84-322.41,99.72,134.94,127.9,113.36,146.43-460.8,191.45-465.35c42.2-4.27,103.85,100.11,121.38,82.85,9.75-9.64,53.77-108.22,99.15-193.85,36.21-68.37,73.32-128.47,94.49-128.35s50.2,49.7,80.67,112.52h0c51.49,106,107.37,249.83,138.46,257.68,15.33,3.88,33.3-2.08,52.36-10.61-.23,1.61-.45,3.24-.67,4.82-.84,6.21-1.57,12.27-2.18,18.27-4.54,42.68-4.33,80.55-.3,114.64,7.52,63.75,28.33,114.17,56.13,157.78C2938,1246,2959.67,1272,2982.58,1296.94Z" transform="translate(0 1.12)"/><path class="cls-4" d="M1937.52,1481.85s76.49-148.55,88.57-124.76,46.17,35.64,62.28,10.3,211.73-252.7,216.47-196.16-75.82,197.07-43.68,203.5,209.21-183.5,271.45-144.48,132.66-32.26,199-30,64.13,166.69,64.13,166.69L2259,1543.24l-253.2,12.57-120.55-15.23Z" transform="translate(0 1.12)"/><path class="cls-5" d="M3027.82,1344.19s-872.26,194.37-963.24,188.9c0,0,64.43-68.71,144.85-71.46s115.3-84.34,209.09-93.88,150,12.16,188.91-9.43,83.19-126.68,174.31-123.68c78.14,2.58,108,.84,137.74-17.87,23.74,37.28,52.66,69.56,82.66,100.89Q3014.88,1331,3027.82,1344.19Z" transform="translate(0 1.12)"/><path class="cls-6" d="M1287.25,1445,3,1207.73v-.1q1.26-19.43,3.33-39A903.78,903.78,0,0,1,28.76,1042s137-29.5,203.31.24,60.19,77.3,112.43,83.82,99.61,1.2,138.87,34.86,98.18,57.74,158,54,187.57-19,237.55,24.3,149,137.5,234.72,136.17,133.25,23.25,147.31,44.82C1274.57,1441.07,1286.53,1444.81,1287.25,1445Z" transform="translate(0 1.12)"/><path class="cls-7" d="M3197.53,1720.15a706.38,706.38,0,0,1-7.36,76.88c-17.67,119.09-113.27,206.67-225.41,206.52l-645.88-1.09-565.95-1-17,0-121.19-.14-15.64,0-115.58-.14-19.77,0-161.11-.27-28.41,0-131.39-.23-35.73,0-226.46-.39-39.56,0-184.9-.31-27.33,0-269.74-.67c-86.77-.12-166.43-51.57-207.29-133.89-45.35-91.52-99.84-223.68-129.39-376-6-30.82-10.94-62.46-14.58-94.75a1066.76,1066.76,0,0,1-6.19-163.6Q3,1200,6.25,1168.65c126.47-1.68,460.53,9.27,858,145.64,507.86,174.27,976.37,286.44,1318.13,196.08,284.25-75.15,637.29-168.18,845.46-166.18,11.48,11.75,23,23.55,34.26,35.59q3.63,3.84,7.22,7.77,6.2,6.71,12.23,13.55a575.78,575.78,0,0,1,46.79,59.58c3.15,4.6,6.19,9.28,9.16,14q5.25,8.46,10.14,17.18a384.08,384.08,0,0,1,27.15,60.11C3191.15,1598.72,3200.07,1653.41,3197.53,1720.15Z" transform="translate(0 1.12)"/><path class="cls-8" d="M1520.48,613.51s39.37-77.67,133.21-68.92c0,0,136.42-129.39,281.6-17,0,0,154.5-27.57,268.84,24.46,76.27,34.7,101.37,71,101.37,71Z" transform="translate(0 1.12)"/><path class="cls-8" d="M996.94,793.44s33.31-54.64,112.81-48.47c0,0,115.54-91,238.53-11.87,0,0,130.87-19.4,227.72,17.17,64.58,24.43,85.89,50,85.89,50Z" transform="translate(0 1.12)"/><path class="cls-8" d="M584.75,544.56s23.75-54.65,80.37-48.51c0,0,82.32-91,169.9-11.93,0,0,93.22-19.47,162.19,17.08,46,24.4,61.16,49.95,61.16,49.95Z" transform="translate(0 1.12)"/><path class="cls-9" d="M1378.15,1506.22s-498.59-61.51-700.34-140.52-216.44-55.87-167.63-14.1,330.48,140.73,213.69,151.8S397,1481.29,317.64,1568.33s-203.83,165.26-.22,182.42,798.4-102.25,798.4-102.25Z" transform="translate(0 1.12)"/><path class="cls-10" d="M1928.12,1412.32s72.13,187.36,80.15,193.18,37.6,13.1,39.6,21.76S2096,1750.48,2096,1750.48L1919.11,1787l-140.56-88.75Z" transform="translate(0 1.12)"/><path class="cls-11" d="M2964.76,2003.55l-533.54-.89-112.34-.14-565.95-1-17,0-121.19-.14-15.64,0-115.58-.14-19.77,0-161.11-.27-28.41,0-131.39-.23-35.73,0-226.46-.39-39.56,0-184.9-.31-27.33,0-269.74-.73A221.6,221.6,0,0,1,261,1975.91c144.38-72.08,584.09-288,932.84-420.43,423.54-160.85,664.78-247,734.31-143.18s-185.25,322.47-45.94,328.4,474.29-39.77,600.19-13.69c125.66,26,112.5,77.73,147.08,80.84h.19c34.78,2.92,302.8-16.92,334.88,35S2964.76,2003.55,2964.76,2003.55Z" transform="translate(0 1.12)"/><path class="cls-8" d="M2675.65,674.22h0s-46.38-39-57.08-50.75-24.14,16.51-32.2,28.61-8.94-25.56-8.93-37.08-77,75.1-77,75.1h0c36.22-68.37,73.32-128.47,94.5-128.35S2645.16,611.4,2675.65,674.22Z" transform="translate(0 1.12)"/><path class="cls-12" d="M2210.5,935.13s55.09-156.28,83.67-151.46,67.55,75.81,67.55,75.81-39.69-36.63-47.1-24.4-8.75,36.43-21.46,24.32-20.75-13.86-27.46,0S2210.5,935.13,2210.5,935.13Z" transform="translate(0 1.12)"/><path class="cls-13" d="M798.27,1828.74C763.43,1874.81,549,1889,555.68,1922.09c5.35,26.56,104.41,45.83,110.49,77.59l-37.3,0-269.74-.5c-86.77-.12-166.43-51.57-207.29-133.89-17.43-35.18-36.22-76.39-54.42-122.42,0,0,91.53-98.91,316.53-60s256.33-61.41,361.74-30,132.63,4.79,171.45,30.62-147.43,68.89-167.56,89S833.16,1782.69,798.27,1828.74Z" transform="translate(0 1.12)"/><path class="cls-13" d="M214.75,1692.94s-45.87-118.45-2.32-144.19-5,101.65,13.52,149C235.13,1721.13,214.75,1692.94,214.75,1692.94Z" transform="translate(0 1.12)"/><path class="cls-13" d="M193.5,1722s-56.6-74.89-30.17-104,16.43,74.83,39.15,104.73C213.83,1737.51,193.5,1722,193.5,1722Z" transform="translate(0 1.12)"/><path class="cls-13" d="M235.26,1715.2s-5.23-117.52,40.3-125.45S241.35,1676,243.63,1723C244.76,1746.27,235.26,1715.2,235.26,1715.2Z" transform="translate(0 1.12)"/><path class="cls-14" d="M394,1834s-6.18-70.9,17.76-77-5.35,73.83-5.35,73.83Z" transform="translate(0 1.12)"/><path class="cls-14" d="M411.9,1835.76s25.71-55.73,48.7-47.93-36.78,52-36.78,52Z" transform="translate(0 1.12)"/><path class="cls-14" d="M362.43,1837.83s25.92-15.34,48.27-11.47,25.89,7.72,35.72,11.57,21.86,11.55,16.5,14.91-50-2.95-60.74-.08S335.36,1848.33,362.43,1837.83Z" transform="translate(0 1.12)"/><path class="cls-14" d="M869.91,1934.57s30.23-150.48,72.05-115.13S894.48,1889.39,869.91,1934.57Z" transform="translate(0 1.12)"/><path class="cls-14" d="M857.6,1942.8s-13.6-109.38,14.19-114.69S858,1909.7,857.6,1942.8Z" transform="translate(0 1.12)"/><path class="cls-14" d="M829.3,1934.15s24-12.5,41.53-11.32,64.48,7.22,60.17,17.21-51.36,1.29-63.28,2.91S816.41,1943.58,829.3,1934.15Z" transform="translate(0 1.12)"/><path class="cls-13" d="M2451,1829.88s-.82-51.9,21.51-61S2453.21,1816.43,2451,1829.88Z" transform="translate(0 1.12)"/><path class="cls-13" d="M2468.9,1822.51s17.13-65.59,48.42-68S2476.44,1806.51,2468.9,1822.51Z" transform="translate(0 1.12)"/><path class="cls-13" d="M379.34,1595.63c9,3.92,41.07.8,42.12-2s-19.92-29.09-28.9-33-19.22.73-22.87,10.39.67,20.67,9.65,24.59h0Z" transform="translate(0 1.12)"/><path class="cls-13" d="M460.29,1612.2c-5.06,8.9-7.38,43.43-5,45s29.91-16.45,35-25.3,2.45-20.52-5.82-26-19.08-2.63-24.13,6.26h0Z" transform="translate(0 1.12)"/><path class="cls-13" d="M417,1679.81c9.23,3.18,41-2.57,41.86-5.41s-21.92-27.36-31.15-30.54-19.11,2.29-22.07,12.22,2.12,20.55,11.36,23.73Z" transform="translate(0 1.12)"/><path class="cls-13" d="M463.66,1713.33c0-.79-3.5-79-43.29-119.52l.84-1c40.17,40.83,43.62,119.61,43.62,120.4Z" transform="translate(0 1.12)"/><path class="cls-13" d="M718.53,1531.64c-8.73,6.22-43.34,10.27-45,7.6s15.33-35.36,24.07-41.58,20.54-3.3,26.18,6.19C729.3,1513.12,727,1525.42,718.53,1531.64Z" transform="translate(0 1.12)"/><path class="cls-13" d="M636.11,1567.77c7.1,8.25,16.41,44.33,14.22,46.51s-34.94-10.55-42-18.81a21.49,21.49,0,0,1,1-28.82,18,18,0,0,1,26.8,1.1Z" transform="translate(0 1.12)"/><path class="cls-13" d="M695.38,1629.41c-9.15,5.48-43.94,6.69-45.39,3.88s17.78-34,27-39.49,20.69-2,25.79,7.88,1.81,22.25-7.33,27.73Z" transform="translate(0 1.12)"/><path class="cls-13" d="M652.56,1675.61c-.12-.84-12-84.48,22.16-136.44l-1.12-.83c-34.43,52.44-22.51,136.66-22.38,137.54Z" transform="translate(0 1.12)"/><path class="cls-13" d="M546,1720.12l-2.56-.43c-9.93-140.09-49.55-240.65-50.11-242l2.33-1.08C496.19,1478,536.13,1579.2,546,1720.12Z" transform="translate(0 1.12)"/><path class="cls-15" d="M466.33,1463.54c4.9,6,27.86,15.62,29.44,14.11s-4.4-27.2-9.29-33.18a12.86,12.86,0,0,0-18.83-3,15.2,15.2,0,0,0-2.84,20.25A14.43,14.43,0,0,0,466.33,1463.54Z" transform="translate(0 1.12)"/><path class="cls-15" d="M501.56,1442.75c-4.44,6.39-8.5,32.57-6.77,33.89s23.86-10.23,28.3-16.62c3.94-6.78,2-15.72-4.28-20a12.81,12.81,0,0,0-17.23,2.69Z" transform="translate(0 1.12)"/><path class="cls-15" d="M527.94,1470.58c-7.14-2.1-31.25,3.41-31.82,5.6s17.59,20.14,24.73,22.25c7,2.72,14.72-1.16,17.25-8.68S537,1473.93,530,1471.2a12.67,12.67,0,0,0-2.1-.62Z" transform="translate(0 1.12)"/><path class="cls-15" d="M511.62,1505.23c-.71-7.94-14-30.18-16.15-30S484.22,1500,484.9,1508c1.3,7.87,8.29,13.12,15.62,11.71C507,1518.45,511.71,1512.33,511.62,1505.23Z" transform="translate(0 1.12)"/><path class="cls-15" d="M475.06,1503.49c6.57-3.71,20.74-25.4,19.75-27.42s-25.63-1.85-32.2,1.84c-6.29,4.27-8.17,13.22-4.2,20a13,13,0,0,0,16.65,5.6Z" transform="translate(0 1.12)"/><path class="cls-16" d="M490.41,1475.32a4.47,4.47,0,0,1,5.07-3.94,4.71,4.71,0,0,1,3.66,5.44,4.45,4.45,0,0,1-5.06,3.94h0A4.72,4.72,0,0,1,490.41,1475.32Z" transform="translate(0 1.12)"/><path class="cls-13" d="M545.41,1576.91c-7.3,9.64-15.23,50.09-12.66,52.33s37.8-14.26,45.1-23.89,6-23.81-3-31.67S552.72,1567.27,545.41,1576.91Z" transform="translate(0 1.12)"/><path class="cls-13" d="M780,1729.62l2.55-.44c10.27-140,50.14-240.53,50.7-241.89l-2.33-1.08C830.33,1487.59,790.13,1588.72,780,1729.62Z" transform="translate(0 1.12)"/><path class="cls-15" d="M860.21,1473.23c-4.91,6-27.9,15.55-29.48,14s4.52-27.2,9.38-33.17a12.85,12.85,0,0,1,18.85-2.93,15.21,15.21,0,0,1,2.72,20.26A15,15,0,0,1,860.21,1473.23Z" transform="translate(0 1.12)"/><path class="cls-15" d="M825,1452.36c4.41,6.38,8.41,32.59,6.69,33.9s-23.84-10.29-28.26-16.69a15.24,15.24,0,0,1,1.22-20.43,12.8,12.8,0,0,1,19,1.3,14.26,14.26,0,0,1,1.33,1.92Z" transform="translate(0 1.12)"/><path class="cls-15" d="M798.58,1480.13c7.15-2.09,31.25,3.47,31.81,5.67s-17.63,20.1-24.79,22.18c-7.31,1.42-14.32-3.8-15.65-11.67-1.16-6.93,2.48-13.76,8.63-16.18Z" transform="translate(0 1.12)"/><path class="cls-15" d="M814.82,1514.8c.73-7.92,14.11-30.15,16.22-30s11.19,24.84,10.5,32.77c-.12,8-6.25,14.38-13.69,14.25s-13.36-6.72-13.24-14.72A15.42,15.42,0,0,1,814.82,1514.8Z" transform="translate(0 1.12)"/><path class="cls-15" d="M851.38,1513.15c-6.55-3.72-20.66-25.44-19.68-27.46s25.63-1.8,32.19,1.91c6.84,3.15,10,11.65,7.09,19s-10.83,10.77-17.67,7.63a14.69,14.69,0,0,1-1.93-1.09Z" transform="translate(0 1.12)"/><path class="cls-16" d="M836,1485a4.47,4.47,0,0,0-5-4,4.71,4.71,0,0,0-3.68,5.43,4.47,4.47,0,0,0,5.05,4h0A4.72,4.72,0,0,0,836,1485Z" transform="translate(0 1.12)"/><path class="cls-13" d="M780.86,1586.41c7.28,9.66,15.11,50.12,12.55,52.36s-37.78-14.34-45.06-24-5.91-23.83,3.06-31.67,22.16-6.35,29.45,3.3Z" transform="translate(0 1.12)"/><path class="cls-13" d="M2244.54,1688.51c11.75,5.59,54.44,2.84,55.93-.76s-25.31-39.43-37.08-45-25.53.13-30.73,12.79.11,27.45,11.88,33Z" transform="translate(0 1.12)"/><path class="cls-13" d="M2351.25,1714c-7,11.57-11.41,57.31-8.34,59.47s40.28-20.47,47.31-32.07,3.87-27.12-6.93-34.62-25-4.22-32,7.22Z" transform="translate(0 1.12)"/><path class="cls-13" d="M2291.23,1801.76c12.13,4.62,54.49-1.61,55.71-5.33s-28-37.25-40.14-41.86-25.43,2.2-29.73,15.23,2,27.34,14.16,32Z" transform="translate(0 1.12)"/><path class="cls-13" d="M2351.9,1848.26c0-1-1.64-105-52.88-160.33l1.12-1.21c51.72,55.89,53.35,160.5,53.36,161.55Z" transform="translate(0 1.12)"/><path class="cls-13" d="M2431,1851.43l-2.25-.38c-8.66-122.6-43.37-210.61-43.86-211.81l2-.94C2387.44,1639.53,2422.4,1728.1,2431,1851.43Z" transform="translate(0 1.12)"/><path class="cls-15" d="M2361.31,1626.88c4.29,5.23,24.38,13.66,25.79,12.35s-3.85-23.81-8.13-29a11.17,11.17,0,0,0-16.6-.78,13.32,13.32,0,0,0-1,17.47Z" transform="translate(0 1.12)"/><path class="cls-15" d="M2392.13,1608.68c-3.87,5.6-7.43,28.47-5.93,29.67s20.88-8.95,24.7-14.55a13.27,13.27,0,0,0-2.16-17.71,11.21,11.21,0,0,0-16.47,2.32l-.19.27Z" transform="translate(0 1.12)"/><path class="cls-15" d="M2415.23,1633c-6.26-1.83-27.36,3-27.84,4.9s15.38,17.62,21.64,19.47,12.76-1.84,14.61-8.53-1.71-13.72-7.93-15.7Z" transform="translate(0 1.12)"/><path class="cls-15" d="M2400.94,1663.37c-.62-6.95-12.31-26.45-14.13-26.26s-9.86,21.71-9.25,28.66,6.56,11.9,13,11.11c6.26-.78,10.84-6.74,10.37-13.5Z" transform="translate(0 1.12)"/><path class="cls-15" d="M2369,1661.84c5.75-3.24,18.14-22.22,17.28-24s-22.44-1.63-28.17,1.61-8,10.87-5,17S2363.21,1665.07,2369,1661.84Z" transform="translate(0 1.12)"/><path class="cls-16" d="M2382.42,1637.19a3.91,3.91,0,0,1,4.48-3.39,4.15,4.15,0,0,1,3.14,4.82,3.92,3.92,0,0,1-4.42,3.4,4.15,4.15,0,0,1-3.22-4.77Z" transform="translate(0 1.12)"/><path class="cls-13" d="M2430.52,1726.1c-6.4,8.43-13.33,43.83-11.09,45.84s33.09-12.48,39.48-20.9,5.22-20.85-2.62-27.72a17.46,17.46,0,0,0-25.77,2.82h0Z" transform="translate(0 1.12)"/><path class="cls-13" d="M2964.76,2003.55l-533.54-.89c2.72-27.34,51-41.1,46.59-68.09-5.7-34.58-243.37-47.84-147.93-91.89,93.74-43.21,292.46-35.17,299.57-34.87h.19c34.78,2.93,302.8-16.92,334.88,35S2964.76,2003.55,2964.76,2003.55Z" transform="translate(0 1.12)"/><path class="cls-17" d="M1383.41,1687.49s3.21,55,13.11,55.78c1.33.11,50.2.06,50.2.06l62.39-.45s-.42-16.17-18.66-19.58-48.78-17.13-59.85-43C1418.94,1653,1383.41,1687.49,1383.41,1687.49Z" transform="translate(0 1.12)"/><path class="cls-17" d="M1701,1641.26s9.46,54.15,19.37,53.62c1.32-.07,49.82-6.56,49.82-6.56l61.88-8.68s-2.23-16-20.75-16.92-50.37-10.58-64.31-34.84C1732.32,1602.33,1701,1641.26,1701,1641.26Z" transform="translate(0 1.12)"/><path class="cls-18" d="M1591,1096.09s-16.22,112.21-76.94,311.55-68.91,285.59-68.91,285.59l-65.31-1.9s-.74-217.74,27.23-318,5.75-361.18,5.75-361.18Z" transform="translate(0 1.12)"/><path class="cls-19" d="M1608.82,994.2s88.68,193.19,111.11,346.06S1760,1633,1760,1633s-21.86,8.62-62.86,12.38c0,0-69-222-76.3-277.28s-213.49-276.48-197.31-331S1608.82,994.2,1608.82,994.2Z" transform="translate(0 1.12)"/><path class="cls-20" d="M1480.44,621.6s-91.93,94.68-96.37,133.7,44.43,100,44.43,100Z" transform="translate(0 1.12)"/><path class="cls-21" d="M1496.21,622.46,1531,646.91l50.18-10.12c-.7-4.35-4-22.41-7.05-38.75-.19-1-.37-1.94-.55-2.88-2.59-13.91-4.83-25.86-4.83-25.86l-46.89-22.19-17.48-8.28c0,.31,1.37,15.45,1.55,17.66C1509.18,595.76,1496.21,622.46,1496.21,622.46Z" transform="translate(0 1.12)"/><path class="cls-20" d="M1568.25,610c-1-.43-60.44-19.23-66.91-17s-10.26,15.75-10.26,15.75l97.27,23.52S1580.68,615.64,1568.25,610Z" transform="translate(0 1.12)"/><path class="cls-16" d="M1408.5,1039.21c10.11,49.49,177.85,55.11,221,10.19,4.91-5.12,5.14-29,3.26-61-3.68-62.69-15.41-157-15.9-205.16-.24-23.27-3.24-47.07-7.21-68.68a592.78,592.78,0,0,0-21.35-82.18s-81.95-28.38-97.27-23.52C1417.22,632.25,1398.38,989.79,1408.5,1039.21Z" transform="translate(0 1.12)"/><path class="cls-20" d="M1632.81,988.39c-3.68-62.69-5.59-166.21-6.08-214.4-.24-23.26-13.06-37.84-17-59.45l-49.3-9.3S1512.39,916.94,1632.81,988.39Z" transform="translate(0 1.12)"/><path class="cls-18" d="M1544.42,914.12s55.9-52.4,76.82-85.59L1637,840s-44.12,79.19-86.23,100.06S1544.42,914.12,1544.42,914.12Z" transform="translate(0 1.12)"/><path class="cls-22" d="M1509.4,557.24c10.3,18.74,48.67,34.91,64.67,40.86-.19-1-.36-1.93-.54-2.88-2.59-13.91-4.83-25.86-4.83-25.86l-46.89-22.19C1511.45,547,1505.14,549.47,1509.4,557.24Z" transform="translate(0 1.12)"/><path class="cls-21" d="M1584.63,563.9s-71.26,36.91-91.94-11.17-43.82-75.67.8-101.28,61.42-11.68,72,2.5S1602.63,553.05,1584.63,563.9Z" transform="translate(0 1.12)"/><path class="cls-18" d="M1561.85,449.63s3.3,59.24-8.34,58.49-22.06-1-18,16.36,22.4,35.23-11.78,43.86-97.26-79.59-90.23-99.3C1453.79,412.15,1592.77,379.25,1561.85,449.63Z" transform="translate(0 1.12)"/><path class="cls-18" d="M1446.72,828.81s-8.52,1.1-9.3,9.71S1431.12,952,1436,954.8s25.15,1.68,26.33,0,5.75-116.76,2.76-123.7C1465.09,831.12,1455.21,827,1446.72,828.81Z" transform="translate(0 1.12)"/><path class="cls-21" d="M1633.34,948.69s11.75,9.4,14.21,19.58c4,16.49,1.41,31.9-13.64,38.08-5.54,2.28-6.29-11.88-10.39-18s-18.76-9.48-15.39-18.74l9.95-27.37Z" transform="translate(0 1.12)"/><path class="cls-21" d="M1613.77,954.13s-9.32,11-10.28,18.09-1.37,18-1.59,22.69,2,8.53,6,.93,7.5-17.72,10.22-17.7S1613.77,954.13,1613.77,954.13Z" transform="translate(0 1.12)"/><path class="cls-16" d="M1549.73,619.81s58.34,11.17,103.34,82.29,61.58,116.59,53.35,142.25S1657,949.54,1648.74,960.3c-7.11,9.2-27.66,8.53-41.1,2.28,0,0,26.2-118.38,15.73-131.19-4.48-5.47-62.2-58-71.37-32.59C1536.81,840.86,1549.73,619.81,1549.73,619.81Z" transform="translate(0 1.12)"/><path class="cls-18" d="M1599.58,644.06a46.21,46.21,0,0,0-32.22-21.85c-22.68-3.66-36.41,24.7-36.41,24.7l16.94,6.94s10.94-21.52,20.8-21.51A46.35,46.35,0,0,1,1599.58,644.06Z" transform="translate(0 1.12)"/><path class="cls-18" d="M1562.73,731.14s-23.57-.37-53.87-1.16c-53.21-1.38-127-4-128.87-8.2-3-6.53,1.07-79.13,19.27-84.36a39.69,39.69,0,0,1,6.67-1.11c29.38-3,119.17,2.84,139.89,10C1568.47,654.24,1562.73,731.14,1562.73,731.14Z" transform="translate(0 1.12)"/><path class="cls-19" d="M1508.85,730c-53.21-1.38-127-4-128.87-8.2-3-6.53,1.07-79.13,19.27-84.36a39.74,39.74,0,0,1,6.66-1.11c34.79,1.65,73.28,5.56,85.94,10C1512.94,653.62,1509.46,720.56,1508.85,730Z" transform="translate(0 1.12)"/><path class="cls-19" d="M1562.73,731.14s-182.26-19.7-213.84-8.4-31.85,242.51-22,258.47,188.89,30.91,214.31,22.49S1562.73,731.14,1562.73,731.14Z" transform="translate(0 1.12)"/><path class="cls-18" d="M1508.89,726s-25,2.38-27.27,21.51-18.35,251.56-4.07,257.73,73.72,3.71,77.18.09,16.63-258.78,8-274.16C1562.73,731.14,1533.75,722,1508.89,726Z" transform="translate(0 1.12)"/><path class="cls-18" d="M1395.94,662.47s-5.85,32.25,1.64,37.17,25.73,6.34,30.3.59,3.59-37.07,3.59-37.07Z" transform="translate(0 1.12)"/><path class="cls-23" d="M1395.94,662.47s2.53,13,16.75,13.29c8.08.36,15.53-4.66,18.76-12.63C1431.45,663.13,1412.16,653.75,1395.94,662.47Z" transform="translate(0 1.12)"/><path class="cls-16" d="M1410.13,670.7a2.65,2.65,0,1,1,2.6,2.9,2.73,2.73,0,0,1-2.6-2.9Z" transform="translate(0 1.12)"/><path class="cls-18" d="M1449.62,666.45s-7.76,31.78-.57,37.22,25.29,8.09,30.17,2.67S1485,669.6,1485,669.6Z" transform="translate(0 1.12)"/><path class="cls-23" d="M1449.62,666.45s1.75,13.21,15.92,14.5c8,.93,15.78-3.57,19.47-11.3C1485,669.65,1466.33,658.88,1449.62,666.45Z" transform="translate(0 1.12)"/><path class="cls-16" d="M1463.29,675.65a2.72,2.72,0,0,1,2.86-2.61,2.8,2.8,0,0,1,2.42,3.08h0a2.72,2.72,0,0,1-2.85,2.61A2.8,2.8,0,0,1,1463.29,675.65Z" transform="translate(0 1.12)"/><path class="cls-18" d="M1345.41,750s-7.9,29.95-3.5,37.79,104.55,13.25,111,6.89,7.45-40.83,7.45-40.83Z" transform="translate(0 1.12)"/><path class="cls-23" d="M1345.41,750s13.66,18.57,48.23,19.15,66.67-15.3,66.67-15.3S1379.45,738.34,1345.41,750Z" transform="translate(0 1.12)"/><ellipse class="cls-16" cx="1391.27" cy="762.09" rx="3.19" ry="2.96" transform="translate(627.51 2153.56) rotate(-89.93)"/><path class="cls-23" d="M1432.83,827.56s-82.7-3.89-87.53-.11-6.8,126.32-3.11,132.29,87.3,8.86,87.3,8.86Z" transform="translate(0 1.12)"/><path class="cls-9" d="M3197.53,1720.15c-50.67-2.72-126.94-7-192.66-11.7-109.84-7.82-61.57-44.25-10.6-96.07s-158.06-23.22-313.47-11.84-388.51,5.26-305.4-67,686.68-153.8,686.68-153.8q3.63,3.84,7.23,7.77,6.18,6.71,12.22,13.55a575.87,575.87,0,0,1,46.8,59.58c3.14,4.6,6.18,9.28,9.16,14q5.24,8.46,10.13,17.19a382.69,382.69,0,0,1,27.16,60.1C3191.15,1598.72,3200.07,1653.41,3197.53,1720.15Z" transform="translate(0 1.12)"/><path class="cls-14" d="M290,1321c-51-.06-133.54,2.72-108.4,20s46.56,43.28-39.19,46c-84.76,2.76-133.36,7.3-134.46,7.4a1068,1068,0,0,1-6.18-163.6s79.42-24.23,127.62.16,82.87,4.92,120.35,30.84,116.52,29,132.58,43.38S341,1321.1,290,1321Z" transform="translate(0 1.12)"/><path class="cls-24" d="M2261.56,1915.87l3.84-68.71s-32.11-28.8-36.71-30.79-74-13.48-74-13.48l2.92,64.54,21.68,46.92Z" transform="translate(0 1.12)"/><path class="cls-25" d="M2103.48,1913.41s-4.43-50-2-55.51,46-56.66,53.26-55,47.11,17.65,54.07,23.71,23.14,53.44,22.87,58.36l-1.7,30.32Z" transform="translate(0 1.12)"/><path class="cls-24" d="M2154.06,1931.83l.53-29.51a14.8,14.8,0,0,0-5.32-11.78c-7.41-6-20-16.1-22.42-17-2.16-.82-23-3.56-38.4-5.5-7.39-.9-14.06,4.81-14.9,12.76a15.72,15.72,0,0,0,0,2.91l2.21,26.71a15.3,15.3,0,0,0,1.6,5.65l12,23.47a13.33,13.33,0,0,0,12.08,7.49l39.52-1C2148.12,1945.83,2153.91,1939.58,2154.06,1931.83Z" transform="translate(0 1.12)"/><path class="cls-25" d="M2049.68,1948.58c-6.95.19-12.89-5.35-13.7-12.77-1.19-10.94-2.49-25.16-1.52-27.62,1.61-4.1,43.61-40.7,49-39.76s23.79,9,29.09,13.3,18.51,38.55,18.44,42.18l-.14,8.57c-.16,7.7-5.91,13.92-13.07,14.15Z" transform="translate(0 1.12)"/><path class="cls-24" d="M1047.51,1752.82l-.38-24.94a12.52,12.52,0,0,1,4.5-10c6.28-5.08,17-13.57,19-14.33,1.82-.7,19.48-3,32.47-4.57,6.22-.78,11.85,4,12.57,10.71a13.09,13.09,0,0,1,0,2.58l-1.94,22.57a13.15,13.15,0,0,1-1.36,4.83l-10.13,19.81a11.25,11.25,0,0,1-10.23,6.32l-33.41-.94C1052.48,1764.75,1047.58,1759.41,1047.51,1752.82Z" transform="translate(0 1.12)"/><path class="cls-25" d="M1135.78,1767.22c5.88.18,10.92-4.5,11.6-10.78,1-9.26,2.15-21.28,1.34-23.36-1.35-3.48-36.8-34.5-41.33-33.72s-20.14,7.59-24.64,11.17-15.75,32.57-15.68,35.63l.11,7.24c.11,6.52,5,11.8,11,12Z" transform="translate(0 1.12)"/><path class="cls-24" d="M952.62,1771.05l-.21-13.56a6.78,6.78,0,0,1,2.46-5.42c3.37-2.76,9.22-7.38,10.32-7.79s10.59-1.62,17.66-2.49a6.3,6.3,0,0,1,6.84,5.86,7.17,7.17,0,0,1,0,1.39l-1.06,12.28a6.84,6.84,0,0,1-.74,2.59l-5.53,10.79a6.13,6.13,0,0,1-5.62,3.43l-18.18-.51A6.42,6.42,0,0,1,952.62,1771.05Z" transform="translate(0 1.12)"/><path class="cls-25" d="M1000.64,1778.87A6.33,6.33,0,0,0,1007,1773c.56-5,1.14-11.57.73-12.71-.74-1.88-20-18.75-22.43-18.33s-10.94,4.13-13.39,6-8.55,17.7-8.53,19.37l.06,4a6.44,6.44,0,0,0,6,6.52Z" transform="translate(0 1.12)"/><path class="cls-24" d="M1894.71,1816.26l-.2-13.55a6.76,6.76,0,0,1,2.45-5.43c3.37-2.76,9.22-7.37,10.32-7.79s10.6-1.61,17.66-2.48a6.28,6.28,0,0,1,6.84,5.82,6.83,6.83,0,0,1,0,1.43l-1.06,12.27a7,7,0,0,1-.75,2.61l-5.53,10.78a6.11,6.11,0,0,1-5.62,3.43l-18.17-.5A6.46,6.46,0,0,1,1894.71,1816.26Z" transform="translate(0 1.12)"/><path class="cls-25" d="M1942.7,1824.09a6.33,6.33,0,0,0,6.31-5.86c.57-5,1.14-11.57.74-12.7-.74-1.89-20-18.76-22.42-18.34s-10.95,4.13-13.4,6-8.55,17.72-8.53,19.38l.07,3.94a6.41,6.41,0,0,0,6,6.52Z" transform="translate(0 1.12)"/><path class="cls-24" d="M698.93,1957.76l-.21-13.56a6.85,6.85,0,0,1,2.46-5.42c3.37-2.75,9.22-7.38,10.32-7.8s10.6-1.6,17.66-2.48a6.29,6.29,0,0,1,6.84,5.81,6.93,6.93,0,0,1,0,1.44L735,1948a7,7,0,0,1-.74,2.59l-5.53,10.78a6.11,6.11,0,0,1-5.62,3.43l-18.17-.5A6.45,6.45,0,0,1,698.93,1957.76Z" transform="translate(0 1.12)"/><path class="cls-25" d="M746.93,1965.58a6.34,6.34,0,0,0,6.31-5.85c.56-5,1.14-11.57.72-12.71-.73-1.88-20-18.75-22.47-18.33s-11,4.12-13.4,6-8.55,17.71-8.53,19.38l.06,3.93a6.45,6.45,0,0,0,6,6.54Z" transform="translate(0 1.12)"/><path class="cls-24" d="M989.9,1731.5l-.14-9.45a4.73,4.73,0,0,1,1.71-3.77,78.4,78.4,0,0,1,7.19-5.44c.69-.25,7.38-1.11,12.34-1.72a4.39,4.39,0,0,1,4.77,4.06,6.15,6.15,0,0,1,0,1l-.73,8.55a5.17,5.17,0,0,1-.52,1.81l-3.86,7.5a4.25,4.25,0,0,1-3.87,2.41l-12.66-.35A4.49,4.49,0,0,1,989.9,1731.5Z" transform="translate(0 1.12)"/><path class="cls-25" d="M1023.34,1737a4.42,4.42,0,0,0,4.39-4.09c.38-3.5.82-8.06.5-8.84-.5-1.32-13.93-13.06-15.69-12.78a36.18,36.18,0,0,0-9.33,4.24c-1.7,1.35-6,12.33-5.94,13.5v2.74a4.47,4.47,0,0,0,4.17,4.54Z" transform="translate(0 1.12)"/></svg>